<svg width="28" height="28" viewBox="0 0 28 28" fill="none" xmlns="http://www.w3.org/2000/svg">
<path d="M25.0802 11.7342V11.7342C25.3823 11.7342 25.6271 11.4893 25.6271 11.1873V10.2678H26.7161C27.0181 10.2678 27.263 10.0229 27.263 9.72092V2.98359C27.263 2.68155 27.0181 2.43671 26.7161 2.43671H25.6271V2.10312C25.6271 0.943469 24.8097 0 23.8049 0C23.2311 0 22.7188 0.307945 22.3845 0.787773C21.9512 0.349945 21.3505 0.0782031 20.6873 0.0782031H3.12712C1.8098 0.0782031 0.738037 1.14997 0.738037 2.46728V25.611C0.738037 26.9283 1.80975 28 3.12712 28H20.6873C22.0046 28 23.0764 26.9282 23.0764 25.611V25.2862C25.3566 25.0148 27.1309 23.0705 27.1309 20.7184C27.1309 18.3663 25.3567 16.4219 23.0764 16.1506V11.7342H25.0802ZM25.6271 3.53046H26.1692V9.17405H25.6271V3.53046ZM1.83184 2.46723C1.83184 1.75301 2.4129 1.17195 3.12712 1.17195H20.6873C21.4015 1.17195 21.9826 1.75301 21.9826 2.46728V10.7197H1.83184V2.46723ZM26.0372 20.7184C26.0372 22.6525 24.4637 24.2261 22.5295 24.2261C20.5953 24.2261 19.0217 22.6525 19.0217 20.7184C19.0217 20.6483 19.0239 20.5763 19.0283 20.5046C19.0465 20.2031 18.8169 19.944 18.5154 19.9258C18.2136 19.9062 17.9548 20.1371 17.9365 20.4386C17.9309 20.5322 17.928 20.6263 17.928 20.7184C17.928 23.0705 19.7024 25.0148 21.9827 25.2862V25.611C21.9827 26.3252 21.4015 26.9062 20.6873 26.9062H3.12717C2.41295 26.9062 1.83184 26.3252 1.83184 25.611V11.8135H21.9827V16.1502C21.3331 16.228 20.7054 16.4429 20.1424 16.7846C19.8842 16.9413 19.8019 17.2777 19.9586 17.5359C20.1154 17.7941 20.4517 17.8764 20.7099 17.7196C21.2585 17.3866 21.8878 17.2106 22.5295 17.2106C24.4637 17.2106 26.0372 18.7842 26.0372 20.7184ZM23.0763 10.6404V2.46723C23.0763 2.38372 23.0719 2.3012 23.0635 2.21987C23.0718 2.1822 23.0764 2.1432 23.0764 2.10312C23.0764 1.55597 23.41 1.09375 23.8048 1.09375C24.1997 1.09375 24.5333 1.55597 24.5333 2.10312V10.6404H23.0763Z" fill="#363636"/>
<path d="M5.63123 12.7013H3.99536C3.69332 12.7013 3.44849 12.9462 3.44849 13.2482V19.9855C3.44849 20.2875 3.69332 20.5324 3.99536 20.5324H4.26645V22.245C4.26645 22.547 4.51128 22.7919 4.81332 22.7919C5.11536 22.7919 5.3602 22.547 5.3602 22.245V20.5324H5.63123C5.93327 20.5324 6.1781 20.2875 6.1781 19.9855V13.2482C6.1781 12.9462 5.93321 12.7013 5.63123 12.7013ZM5.08435 19.4386H4.54224V13.795H5.08435V19.4386Z" fill="#363636"/>
<path d="M4.81348 23.284C4.51144 23.284 4.2666 23.5289 4.2666 23.8309V23.8568C4.2666 24.1588 4.51144 24.4037 4.81348 24.4037C5.11552 24.4037 5.36035 24.1588 5.36035 23.8568V23.8309C5.36035 23.5288 5.11552 23.284 4.81348 23.284Z" fill="#363636"/>
<path d="M24.6102 20.1736H23.8606L24.3951 19.6391C24.6086 19.4255 24.6086 19.0792 24.3951 18.8656C24.1815 18.6521 23.8352 18.6521 23.6217 18.8656L23.0917 19.3957V18.6398C23.0917 18.3377 22.8468 18.0929 22.5448 18.0929C22.2427 18.0928 21.9978 18.3377 21.9978 18.6397V19.4109L21.4602 18.8732C21.2466 18.6598 20.9003 18.6597 20.6868 18.8732C20.4732 19.0868 20.4732 19.4331 20.6868 19.6467L21.2136 20.1735H20.4749C20.1728 20.1735 19.928 20.4184 19.928 20.7204C19.928 21.0224 20.1728 21.2673 20.4749 21.2673H21.22L20.6976 21.7897C20.484 22.0032 20.484 22.3495 20.6976 22.5631C20.8044 22.6699 20.9443 22.7233 21.0843 22.7233C21.2242 22.7233 21.3642 22.6699 21.471 22.5631L21.9978 22.0362V22.775C21.9978 23.0769 22.2427 23.3218 22.5447 23.3218C22.8468 23.3218 23.0916 23.0769 23.0916 22.775V22.0516L23.6107 22.5708C23.7175 22.6775 23.8575 22.7309 23.9974 22.7309C24.1374 22.7309 24.2774 22.6775 24.3841 22.5708C24.5977 22.3572 24.5977 22.0109 24.3842 21.7974L23.8542 21.2673H24.6102C24.9122 21.2673 25.157 21.0224 25.157 20.7205C25.157 20.4185 24.9122 20.1736 24.6102 20.1736Z" fill="#363636"/>
<path d="M19.1664 18.3846C18.897 18.2482 18.5679 18.3559 18.4314 18.6253C18.4222 18.6434 18.4132 18.6614 18.4042 18.6794C18.2706 18.9503 18.3818 19.2782 18.6526 19.4119C18.7305 19.4503 18.813 19.4684 18.8942 19.4684C19.0959 19.4684 19.2898 19.3565 19.3851 19.1634L19.4071 19.1195C19.5436 18.8501 19.4359 18.5211 19.1664 18.3846Z" fill="#363636"/>
<path d="M8.02647 9.0838H8.00049C7.69845 9.0838 7.45361 9.32864 7.45361 9.63068C7.45361 9.93266 7.69845 10.1776 8.00049 10.1776H8.02647C8.3285 10.1776 8.57334 9.93266 8.57334 9.63068C8.57334 9.32864 8.3285 9.0838 8.02647 9.0838Z" fill="#363636"/>
<path d="M20.6871 1.71417H3.12699C2.71164 1.71417 2.37378 2.05209 2.37378 2.46738V9.63079C2.37378 9.93283 2.61862 10.1777 2.92065 10.1777H5.18023C5.48227 10.1777 5.72711 9.93283 5.72711 9.63085C5.72711 9.32881 5.48227 9.08397 5.18023 9.08397H3.46758V6.81996H10.6939C10.996 6.81996 11.2408 6.57507 11.2408 6.27309V2.80792H20.3467V4.73544H13.0465C12.7445 4.73544 12.4997 4.98033 12.4997 5.28231V9.08397H9.61216C9.31012 9.08397 9.06529 9.32881 9.06529 9.63085C9.06529 9.93283 9.31012 10.1777 9.61216 10.1777H20.8935C21.1956 10.1777 21.4404 9.93283 21.4404 9.63085V2.46738C21.4404 2.05203 21.1025 1.71417 20.6871 1.71417ZM10.1471 3.72022H9.00962C8.70758 3.72022 8.46274 3.96511 8.46274 4.26709C8.46274 4.56908 8.70758 4.81397 9.00962 4.81397H10.1471V5.72627H3.46758V4.81392H4.81137C5.1134 4.81392 5.35824 4.56902 5.35824 4.26704C5.35824 3.96506 5.1134 3.72016 4.81137 3.72016H3.46758V2.80792H10.1471V3.72022ZM15.1153 9.08397H13.5934V5.82919H15.1153V9.08397ZM17.731 9.08397H16.2091V5.82919H17.731V9.08397ZM20.3467 9.08397H18.8248V5.82919H20.3467V9.08397Z" fill="#363636"/>
</svg>
