<svg width="28" height="29" viewBox="0 0 28 29" fill="none" xmlns="http://www.w3.org/2000/svg">
<path d="M27.8294 12.7157C27.8066 12.5911 27.7414 12.4782 27.6446 12.3964C26.739 11.6303 26.5861 10.7855 26.4632 10.1068L26.4471 10.0184C26.4047 9.7867 26.2187 9.6082 25.9855 9.57539C25.905 9.56407 25.8198 9.55827 25.7322 9.55827C25.2118 9.55827 24.4785 9.77757 24.0136 10.2674C23.9343 10.351 23.8834 10.4576 23.8682 10.5718C23.8291 10.8657 23.809 11.1346 23.7913 11.3719C23.7243 12.2661 23.665 12.361 23.3926 12.4471C23.2219 12.5012 23.0885 12.6353 23.0354 12.8063C22.7788 13.6322 22.4384 14.4225 22.0264 15.1682C21.8229 14.7797 21.598 14.4302 21.3887 14.105C20.8768 13.3098 20.4725 12.6815 20.6106 11.9029C21.0583 9.37944 20.8311 7.47851 19.9351 6.25285C19.4361 5.5703 18.7253 5.10496 17.8614 4.88758C18.0334 3.54598 18.9657 2.93775 19.4818 2.79945C19.7735 2.7213 19.9467 2.42139 19.8685 2.12963C19.7903 1.83793 19.4904 1.66462 19.1987 1.74294C18.1331 2.02846 16.9949 3.07666 16.7775 4.75086C15.9047 4.7484 15.112 5.01494 14.4597 5.53612C13.2677 6.4885 12.5476 8.2583 12.3191 10.7962C12.2504 11.5599 11.7563 12.0055 11.0725 12.6221C10.5143 13.1255 9.89248 13.6875 9.39438 14.537C8.77395 14.2844 8.10841 14.1205 7.41344 14.0611C7.61042 12.7731 8.51632 12.185 9.0224 12.0495C9.31416 11.9713 9.4873 11.6714 9.40909 11.3797C9.33089 11.0879 9.03098 10.9147 8.73934 10.993C8.46453 11.0666 8.18502 11.1916 7.91755 11.3643C7.79313 10.7502 7.49213 10.1742 7.03637 9.71851C6.42573 9.10787 5.61378 8.77159 4.75016 8.77159C4.46748 8.77159 4.18595 8.80851 3.91333 8.88124C3.72427 8.93172 3.57656 9.07943 3.52609 9.26848C3.22897 10.3812 3.54977 11.5778 4.3633 12.3915C4.92937 12.9576 5.66869 13.2874 6.46166 13.3326C6.39253 13.5589 6.34113 13.7997 6.31127 14.0551C2.78671 14.3199 0 17.2722 0 20.8632C0 24.6278 3.06277 27.6906 6.82735 27.6906C8.22648 27.6906 9.55921 27.2747 10.7002 26.4859C10.8799 26.5648 11.0602 26.6407 11.2413 26.7121C12.8872 27.3613 14.5505 27.6905 16.1851 27.6905C18.8142 27.6905 21.2544 26.8315 23.2418 25.2062C25.3189 23.5075 26.8499 20.9939 27.6689 17.9372C27.9361 16.9402 28.1719 14.5912 27.8294 12.7157ZM11.805 13.4345C12.5406 12.7711 13.3013 12.0852 13.4085 10.8943C13.6091 8.66501 14.1925 7.14973 15.1425 6.39072C15.7064 5.94015 16.4035 5.76641 17.2145 5.8748C18.0154 5.98171 18.6337 6.32608 19.0521 6.89844C19.7653 7.87395 19.9273 9.49347 19.5337 11.7119C19.3205 12.9129 19.9044 13.8199 20.469 14.6971C20.7854 15.1887 21.1111 15.6956 21.3326 16.2855C19.4895 18.9472 16.6927 20.8882 13.6153 21.599C13.6415 21.355 13.6549 21.1091 13.6549 20.8632C13.6549 18.3963 12.3396 16.2308 10.3736 15.0309C10.7827 14.3575 11.3008 13.8891 11.805 13.4345ZM5.13658 11.6181C4.67715 11.1586 4.45523 10.5143 4.52227 9.87732C4.59785 9.86934 4.67381 9.86523 4.75005 9.86523C5.32148 9.86523 5.85878 10.0878 6.26281 10.4918C6.7223 10.9513 6.94427 11.5956 6.87717 12.2325C6.80165 12.2405 6.72563 12.2446 6.64956 12.2446H6.64945C6.07786 12.2446 5.54061 12.0221 5.13658 11.6181ZM6.82735 26.5968C3.66581 26.5968 1.09375 24.0248 1.09375 20.8632C1.09375 17.7016 3.66581 15.1295 6.82735 15.1295C9.98895 15.1295 12.5611 17.7016 12.5611 20.8632C12.5611 21.1784 12.5353 21.4931 12.4844 21.8026C12.1326 21.848 11.7784 21.8769 11.4225 21.889C11.4974 21.5536 11.5366 21.2109 11.5366 20.8632C11.5366 20.2473 11.4181 19.646 11.1844 19.0763C11.0698 18.7969 10.7505 18.6631 10.4709 18.7778C10.1915 18.8924 10.0579 19.2119 10.1725 19.4913C10.3519 19.9288 10.4429 20.3903 10.4429 20.8632C10.4429 21.207 10.3941 21.5448 10.2989 21.8719C9.51617 21.8216 8.73234 21.6922 7.96004 21.4853C7.80276 21.4431 7.63476 21.4733 7.50192 21.5676C7.01586 21.9127 6.52597 22.3467 6.23547 23.179C6.1606 23.3934 6.22612 23.6319 6.40008 23.778C7.40469 24.6219 8.4543 25.3373 9.53548 25.918C8.70789 26.3637 7.78641 26.5968 6.82735 26.5968ZM26.6124 17.6542C25.112 23.2538 21.2139 26.5968 16.1851 26.5968C13.2494 26.5968 10.1505 25.3932 7.41918 23.1997C7.56394 22.9398 7.74293 22.7609 7.93527 22.6082C8.96219 22.8616 10.0065 22.9899 11.0435 22.9899C13.9786 22.9899 16.8086 21.9897 19.2276 20.0975C20.4575 19.1355 21.5234 17.9763 22.3772 16.6909C22.3874 16.6771 22.397 16.6629 22.4058 16.6482C23.0798 15.6256 23.6197 14.5238 24.0004 13.3781C24.7669 12.9925 24.8253 12.2113 24.882 11.4536C24.895 11.2804 24.9083 11.1028 24.9286 10.9153C25.0741 10.81 25.2668 10.7266 25.4601 10.6837C25.6058 11.3791 25.8892 12.2716 26.7847 13.0958C27.0381 14.707 26.8541 16.752 26.6124 17.6542Z" fill="#363636"/>
<path d="M17.6364 7.00023C17.3581 6.88364 17.0374 7.01462 16.9206 7.29314C16.8038 7.57166 16.9349 7.89213 17.2135 8.00895C17.6113 8.17574 17.831 9.37619 17.4811 11.3478C17.4283 11.6452 17.6266 11.9291 17.9241 11.9819C17.9564 11.9876 17.9886 11.9904 18.0203 11.9904C18.2804 11.9904 18.5111 11.804 18.5581 11.539C18.8711 9.7759 18.9651 7.55728 17.6364 7.00023Z" fill="#363636"/>
<path d="M21.2523 22.6528C21.0711 22.4112 20.7277 22.3627 20.4861 22.544C20.4859 22.5441 20.4836 22.5458 20.4834 22.5459C20.2398 22.7243 20.1879 23.0655 20.366 23.3092C20.473 23.4554 20.6393 23.5328 20.8079 23.5328C20.9202 23.5328 21.0336 23.4985 21.1311 23.4273L21.1436 23.418C21.3852 23.2368 21.4335 22.8945 21.2523 22.6528Z" fill="#363636"/>
<path d="M19.9961 23.5374C19.8585 23.2686 19.529 23.1621 19.2601 23.2996C17.3883 24.2571 15.8091 24.2192 15.7858 24.2181C15.4852 24.2077 15.2312 24.442 15.2194 24.7433C15.2076 25.0451 15.4427 25.2993 15.7445 25.3111C15.7528 25.3115 15.7823 25.3124 15.8311 25.3124C16.222 25.3124 17.8509 25.249 19.7582 24.2733C20.0271 24.1358 20.1336 23.8063 19.9961 23.5374Z" fill="#363636"/>
<path d="M10.1747 17.5501L10.1567 17.532C9.94256 17.3191 9.59633 17.32 9.38327 17.5341C9.17026 17.7483 9.17119 18.0945 9.38535 18.3075L9.39711 18.3193C9.50408 18.4275 9.64495 18.4816 9.78588 18.4816C9.92484 18.4816 10.0639 18.4289 10.1705 18.3235C10.3852 18.1111 10.3871 17.7648 10.1747 17.5501Z" fill="#363636"/>
</svg>
