<svg width="28" height="28" viewBox="0 0 28 28" fill="none" xmlns="http://www.w3.org/2000/svg">
<g clip-path="url(#clip0)">
<path d="M22.1867 2.3455C18.6816 0.679672 9.38601 0.679672 5.8811 2.3455C5.40173 2.57344 5.40215 3.25597 5.8811 3.48369C9.38601 5.14909 18.6816 5.14931 22.1867 3.48369C22.6659 3.25575 22.6657 2.57323 22.1867 2.3455ZM6.6354 2.9146C10.0564 1.58543 18.0115 1.58543 21.4324 2.9146C18.0115 4.24355 10.0564 4.24355 6.6354 2.9146Z" fill="#363636"/>
<path d="M18.4459 13.593C18.0998 13.7938 17.7821 14.0273 17.4995 14.2884C15.0674 12.0345 10.7977 12.363 8.86124 14.9333C8.8606 14.9342 8.85975 14.935 8.8591 14.9361C8.68586 15.1662 8.68607 15.4877 8.8591 15.7175C10.7819 18.2744 15.0523 18.6333 17.4995 16.3652C17.8012 16.6438 18.1423 16.8907 18.5155 17.1003C18.8832 17.3069 19.3397 17.0405 19.3397 16.6186V14.1094C19.3397 13.6514 18.8411 13.3636 18.4459 13.593ZM11.0402 16.478C10.4638 16.1847 9.97016 15.7919 9.59504 15.3268C9.97016 14.8617 10.4638 14.4689 11.0402 14.1758C11.5048 14.8697 11.5072 15.7803 11.0402 16.478ZM18.5187 16.1341C18.3143 15.9907 18.1248 15.8333 17.953 15.6633C17.7029 15.4157 17.2957 15.4157 17.046 15.663C15.6844 17.0108 13.5718 17.3492 11.8095 16.7952C12.3439 15.8895 12.3444 14.7652 11.8095 13.8588C13.5686 13.3057 15.6827 13.6411 17.046 14.9906C17.2959 15.2379 17.7029 15.2379 17.953 14.9906C18.1248 14.8207 18.3141 14.6631 18.5187 14.5197V16.1341Z" fill="#363636"/>
<path d="M23.7213 14.7795C23.9482 14.7795 24.1319 14.5958 24.1319 14.3692V2.9147C24.1319 -1.04309 3.9375 -1.04587 3.9375 2.9147V24.976C3.9375 28.9338 24.1319 28.9366 24.1319 24.976C24.1319 24.34 24.1319 16.2845 24.1319 16.2845C24.1319 16.0579 23.9482 15.8741 23.7213 15.8741C23.4947 15.8741 23.311 16.0579 23.311 16.2845V17.4588C23.311 18.3103 19.8368 19.6166 14.0346 19.6166C8.24393 19.6166 4.75845 18.3129 4.75845 17.4588V9.41034C6.608 10.6818 10.8172 11.0554 13.0663 11.114C13.2914 11.1185 13.4813 10.9409 13.4873 10.7143C13.4931 10.4876 13.3143 10.2992 13.0876 10.2932C7.75131 10.1546 4.75845 8.93011 4.75845 8.14804V4.17016C7.88333 6.34079 19.8896 6.54458 23.311 4.17016V8.14804C23.311 8.92926 20.3228 10.1544 14.9816 10.2935C14.7552 10.2992 14.5761 10.4879 14.5821 10.7145C14.5879 10.9373 14.7703 11.1142 14.9921 11.1142C14.9957 11.1142 14.9993 11.1142 15.003 11.114C17.2501 11.0557 21.4621 10.6816 23.311 9.41012V14.3692C23.311 14.5958 23.4947 14.7795 23.7213 14.7795ZM23.311 24.976C23.311 25.8264 19.8402 27.1336 14.0346 27.1336C8.24393 27.1336 4.75845 25.8298 4.75845 24.976V20.9975C8.06021 23.2903 20.0045 23.2935 23.311 20.9975V24.976ZM23.311 18.7143C23.311 19.8864 23.4041 19.9167 22.9111 20.2786C21.1613 21.5631 16.5936 21.9002 14.0346 21.9002C8.09781 21.9002 4.75845 20.5491 4.75845 19.7426V18.7143C8.06 21.0062 20.0039 21.0099 23.311 18.7143ZM21.2457 4.2005C21.0985 4.24578 20.943 4.29043 20.7789 4.3338C16.7953 5.38995 10.3458 5.28485 6.82376 4.2005C5.40125 3.76257 4.75824 3.25201 4.75824 2.9147C4.75824 2.06427 8.22897 0.757107 14.0346 0.757107C19.8253 0.757107 23.311 2.06085 23.311 2.9147C23.311 3.25201 22.668 3.76278 21.2457 4.2005Z" fill="#363636"/>
</g>
<defs>
<clipPath id="clip0">
<rect width="28" height="28" fill="white"/>
</clipPath>
</defs>
</svg>
