<svg width="28" height="29" viewBox="0 0 28 29" fill="none" xmlns="http://www.w3.org/2000/svg">
<g clip-path="url(#clip0)">
<path d="M24.1075 14.3164C23.9856 10.6519 21.891 7.34008 18.6324 5.65961C18.8909 5.17077 19.0674 4.64286 19.1551 4.0969C19.32 3.16489 18.9978 2.21314 18.3007 1.57295C17.7682 1.03345 17.0462 0.722874 16.2883 0.707275C15.4133 0.755407 14.5903 1.13772 13.9892 1.77532C13.3881 1.13772 12.565 0.755407 11.6901 0.707275C10.9353 0.727231 10.2178 1.03963 9.68893 1.57857C8.99182 2.21876 8.66958 3.17051 8.83449 4.10252C8.92162 4.64427 9.09623 5.16831 9.35165 5.65399C6.08738 7.33489 3.98981 10.6523 3.87092 14.322C3.41433 14.6914 3.14142 15.2415 3.12329 15.8285C3.12399 16.1771 3.2192 16.519 3.39873 16.8178L6.9064 28.3077C6.9806 28.5535 7.21199 28.7177 7.46853 28.7068H20.5661C20.8226 28.7177 21.054 28.5535 21.1282 28.3077L24.6696 16.7335C24.7743 16.393 24.844 16.0426 24.8776 15.6879C24.8151 15.146 24.5376 14.6519 24.1075 14.3164ZM10.459 2.39928C10.7826 2.06172 11.223 1.86062 11.6901 1.83715C12.7075 1.83715 13.5282 2.9614 13.5339 2.9614C13.7137 3.21443 14.0647 3.27373 14.3178 3.09378C14.369 3.05738 14.4137 3.01263 14.4501 2.9614C14.4501 2.9614 15.2821 1.83715 16.2939 1.83715C16.761 1.86062 17.2014 2.06172 17.525 2.39928C17.953 2.79016 18.1451 3.37674 18.0309 3.94512C17.7892 5.6315 15.7824 7.88001 13.9892 8.88059C12.2241 7.88001 10.1892 5.65399 9.9475 3.94512C9.83473 3.37576 10.0289 2.78897 10.459 2.39928ZM7.85639 27.5769L4.43305 16.4468C4.41892 16.3973 4.39812 16.3501 4.37121 16.3063C4.28127 16.1713 4.23244 16.0131 4.23068 15.851C4.2871 15.2678 4.79864 14.8361 5.38304 14.8785C5.96681 14.8227 6.48741 15.2456 6.55226 15.8285C6.55226 15.8678 8.80077 27.5544 8.80077 27.5544L7.85639 27.5769ZM9.92502 27.5769L7.68213 15.8285C7.75472 15.2703 8.24419 14.8615 8.80639 14.8897C9.39044 14.827 9.91638 15.2453 9.98685 15.8285L11.336 27.5769H9.92502ZM13.4102 27.5769H12.4714L11.1111 15.8285C11.2004 15.1889 11.7913 14.7429 12.4308 14.8322C12.9481 14.9045 13.3548 15.3112 13.4271 15.8285L13.4102 27.5769ZM13.9779 14.4681C13.5271 14.008 12.9077 13.7521 12.2635 13.7598C11.6176 13.7551 10.998 14.0151 10.549 14.4794C9.61676 13.5325 8.09354 13.5206 7.14664 14.4527C7.13772 14.4615 7.12879 14.4704 7.12001 14.4794C6.67101 14.0151 6.05141 13.7551 5.40552 13.7598C5.27553 13.7606 5.14582 13.7719 5.01766 13.7936C5.31355 10.7141 7.1713 8.00283 9.93626 6.61522C10.9332 8.01091 12.2321 9.16376 13.7362 9.98798C13.8953 10.0682 14.0831 10.0682 14.2421 9.98798C15.7444 9.1632 17.0413 8.01035 18.0365 6.61522C20.7918 8.00508 22.6421 10.7106 22.9382 13.7823C22.81 13.7609 22.6804 13.7496 22.5504 13.7486C21.9045 13.7438 21.2849 14.0039 20.8359 14.4681C19.9037 13.5212 18.3805 13.5093 17.4335 14.4415C17.4246 14.4503 17.4157 14.4592 17.4069 14.4681C16.4747 13.5212 14.9515 13.5093 14.0046 14.4415C13.9956 14.4503 13.9867 14.4592 13.9779 14.4681ZM14.5513 27.5769V15.8285C14.6606 15.1921 15.2651 14.7647 15.9015 14.874C16.3898 14.9578 16.7722 15.3403 16.856 15.8285C16.856 15.8622 15.5294 27.5544 15.5294 27.5544L14.5513 27.5769ZM16.6593 27.5769C16.6593 27.5769 17.969 15.8791 17.969 15.8285C18.0783 15.1921 18.6829 14.7647 19.3193 14.874C19.8075 14.9578 20.1899 15.3403 20.2738 15.8285L18.059 27.5769H16.6593ZM23.6915 15.9409C23.6915 16.0533 20.122 27.5769 20.122 27.5769H19.2001L21.398 15.8285C21.496 15.268 21.9814 14.8584 22.5504 14.856C23.1369 14.8104 23.6519 15.2429 23.7084 15.8285C23.7084 15.8285 23.6971 15.9128 23.6915 15.9409Z" fill="#363636"/>
<path d="M8.3676 12.321C8.83328 12.321 9.21079 11.9435 9.21079 11.4778C9.21079 11.0122 8.83328 10.6346 8.3676 10.6346C7.90192 10.6346 7.52441 11.0122 7.52441 11.4778C7.52441 11.9435 7.90192 12.321 8.3676 12.321Z" fill="#363636"/>
<path d="M13.9887 12.321C14.4544 12.321 14.8319 11.9435 14.8319 11.4778C14.8319 11.0122 14.4544 10.6346 13.9887 10.6346C13.523 10.6346 13.1455 11.0122 13.1455 11.4778C13.1455 11.9435 13.523 12.321 13.9887 12.321Z" fill="#363636"/>
<path d="M19.61 12.321C20.0757 12.321 20.4532 11.9435 20.4532 11.4778C20.4532 11.0122 20.0757 10.6346 19.61 10.6346C19.1444 10.6346 18.7668 11.0122 18.7668 11.4778C18.7668 11.9435 19.1444 12.321 19.61 12.321Z" fill="#363636"/>
</g>
<defs>
<clipPath id="clip0">
<rect width="28" height="28" fill="white" transform="translate(0 0.707275)"/>
</clipPath>
</defs>
</svg>
