<svg width="20" height="29" viewBox="0 0 20 29" fill="none" xmlns="http://www.w3.org/2000/svg">
<path d="M10.5195 19.0437C10.2177 19.0437 9.97266 19.2887 9.97266 19.5906C9.97266 19.8925 10.2177 20.1375 10.5195 20.1375C10.8214 20.1375 11.0664 19.8925 11.0664 19.5906C11.0664 19.2887 10.8214 19.0437 10.5195 19.0437Z" fill="#363636"/>
<path d="M8.66704 18.5645C7.44844 17.8876 6.69141 16.6043 6.69141 15.2156C6.69141 14.9135 6.44657 14.6687 6.14453 14.6687C5.84249 14.6687 5.59766 14.9135 5.59766 15.2156C5.59766 17.0013 6.57027 18.6509 8.13592 19.5207C8.22003 19.5674 8.31114 19.5896 8.40099 19.5896C8.59316 19.5896 8.77959 19.4881 8.87956 19.3082C9.02623 19.0441 8.93108 18.7112 8.66704 18.5645Z" fill="#363636"/>
<path d="M19.2969 0.121826H13.8281C13.5606 0.121826 13.3324 0.315311 13.2886 0.579178L12.4571 5.59058H12.1673C12.0541 4.19528 11.461 2.89919 10.4681 1.89901C9.34058 0.762764 7.82956 0.132107 6.21207 0.122428C6.20901 0.122318 6.20595 0.122373 6.20288 0.122318C6.20162 0.122318 6.20042 0.122154 6.19916 0.122154C6.19845 0.122154 6.1978 0.122264 6.19714 0.122264C6.18883 0.122045 6.18052 0.121826 6.17188 0.121826C4.55854 0.121826 3.04156 0.763803 1.90067 1.92925C0.79243 3.05997 0.173258 4.55069 0.156852 6.12728C0.156797 6.12865 0.156852 6.12996 0.156797 6.13133C0.156797 6.1334 0.156469 6.13537 0.156469 6.13745C0.156469 6.13887 0.156688 6.14024 0.156688 6.14161C0.156469 6.15851 0.15625 6.17546 0.15625 6.19214C0.15625 7.79891 0.781984 9.30955 1.91823 10.4458C1.91823 10.4458 1.91828 10.4458 1.91828 10.4458C2.48118 11.0088 3.1558 11.4567 3.88829 11.7581C3.80423 12.0542 3.73177 12.3446 3.67107 12.6356C3.50203 13.4441 3.41688 14.2554 3.41076 15.1107C3.41016 15.1455 3.41016 15.1809 3.41016 15.2156C3.41016 17.115 4.14975 18.9003 5.49249 20.2424C6.4393 21.1896 7.60671 21.8362 8.87891 22.1353V27.0281H5.05078C4.74874 27.0281 4.50391 27.273 4.50391 27.575C4.50391 27.8769 4.74874 28.1218 5.05078 28.1218H15.9883C16.2903 28.1218 16.5352 27.8769 16.5352 27.575C16.5352 27.273 16.2903 27.0281 15.9883 27.0281H12.1602V22.1335C15.2919 21.3909 17.6289 18.5712 17.6289 15.2156V15.174C17.6267 14.4345 17.5569 13.6044 17.433 12.8184C17.4354 12.7975 17.437 12.7762 17.437 12.7546C17.437 12.6703 17.4174 12.5908 17.3834 12.5195C17.2852 11.9664 17.1631 11.4575 17.0191 11.006L15.4156 5.97147C15.3434 5.74463 15.1327 5.59058 14.8946 5.59058H13.5658L14.2918 1.21558H19.2969C19.5989 1.21558 19.8438 0.97074 19.8438 0.668701C19.8438 0.366662 19.5989 0.121826 19.2969 0.121826ZM11.069 5.59058H7.56717L10.0569 3.08315C10.6276 3.80541 10.9773 4.66947 11.069 5.59058ZM6.74609 1.24894C7.68448 1.35432 8.55997 1.71837 9.28742 2.30577L6.74609 4.86509V1.24894ZM6.55113 6.68433H12.2756L11.3591 12.2078H4.89837C4.94764 12.0253 5.0014 11.841 5.06161 11.6519C5.06265 11.6487 5.06358 11.6455 5.06456 11.6423L6.55113 6.68433ZM5.65234 1.24374V4.89916L3.08181 2.32863C3.8219 1.71865 4.70822 1.34437 5.65234 1.24374ZM2.31745 3.11115L4.79687 5.59058H1.28741C1.39651 4.68462 1.75105 3.83112 2.31745 3.11115ZM1.27423 6.68433H4.92708C4.89181 6.70615 4.85823 6.7319 4.8276 6.76253L2.3268 9.26377C1.73158 8.52161 1.36774 7.63217 1.27423 6.68433ZM3.10013 10.0372L4.96241 8.17456L4.20389 10.7042C3.80981 10.5318 3.43766 10.3068 3.10013 10.0372ZM11.0664 27.0281H9.97266V22.325H11.0664V27.0281ZM16.5352 15.1757V15.2156H16.5352C16.5352 18.5326 13.8365 21.2312 10.5195 21.2312C8.91237 21.2312 7.4018 20.6055 6.26588 19.469C5.12964 18.3333 4.50391 16.8227 4.50391 15.2156C4.50391 15.1869 4.50391 15.1577 4.50445 15.1238C4.50899 14.4939 4.56045 13.8938 4.65944 13.3015H11.8215C11.8221 13.3015 11.8228 13.3016 11.8234 13.3016C11.824 13.3016 11.8246 13.3015 11.8253 13.3015H16.3986C16.4851 13.9372 16.5335 14.5886 16.5352 15.1757ZM14.4948 6.68433L15.977 11.3382C16.0607 11.6008 16.1382 11.8951 16.2069 12.2078H12.4679L13.3844 6.68433H14.4948Z" fill="#363636"/>
</svg>
