<svg width="28" height="29" viewBox="0 0 28 29" fill="none" xmlns="http://www.w3.org/2000/svg">
<g clip-path="url(#clip0)">
<path d="M5.82437 8.24194C5.82437 7.37936 5.12257 6.67761 4.26005 6.67761C3.88161 6.67761 3.52609 6.81045 3.24615 7.04998C3.08428 6.99474 2.91343 6.9662 2.74035 6.9662C1.87777 6.9662 1.17603 7.66794 1.17603 8.53052C1.17603 9.19639 1.60515 9.7839 2.21333 10.0032C2.3967 10.6675 3.00914 11.1529 3.72144 11.1529C4.58401 11.1529 5.28576 10.4511 5.28576 9.58855C5.28576 9.53529 5.28308 9.48224 5.27772 9.42963C5.6205 9.13542 5.82437 8.70251 5.82437 8.24194ZM4.62372 8.89091L4.33541 9.053L4.43269 9.3691C4.45446 9.43986 4.46556 9.51369 4.46556 9.58845C4.46556 9.99871 4.13175 10.3325 3.72154 10.3325C3.33332 10.3325 3.0075 10.0295 2.97982 9.64275L2.95625 9.31435L2.63054 9.26628C2.26906 9.21296 1.99644 8.8966 1.99644 8.53041C1.99644 8.12015 2.33025 7.78639 2.74046 7.78639C2.87739 7.78639 3.01105 7.8238 3.12704 7.89457L3.44319 8.08745L3.66724 7.79257C3.80959 7.60522 4.02566 7.49781 4.26016 7.49781C4.67042 7.49781 5.00417 7.83162 5.00417 8.24183C5.00412 8.51029 4.85838 8.75901 4.62372 8.89091Z" fill="#363636"/>
<path d="M10.1991 2.99461C10.1991 2.20066 9.55316 1.55481 8.75921 1.55481C8.41938 1.55481 8.09968 1.67113 7.84511 1.88146C7.7032 1.83579 7.55434 1.81222 7.40352 1.81222C6.60957 1.81222 5.96366 2.45813 5.96366 3.25202C5.96366 3.30102 5.96617 3.34997 5.97121 3.39869C5.76799 3.65239 5.65479 3.96963 5.65479 4.2989C5.65479 5.09284 6.3007 5.7387 7.09464 5.7387C7.34292 5.7387 7.58595 5.67417 7.80011 5.5538C7.95323 5.60778 8.11516 5.63572 8.27873 5.63572C9.07268 5.63572 9.71859 4.98981 9.71859 4.19592C9.71859 4.15463 9.71684 4.11351 9.71334 4.0726C10.0183 3.80223 10.1991 3.41078 10.1991 2.99461ZM9.06207 3.53503L8.7737 3.69712L8.87105 4.01327C8.8892 4.07211 8.89839 4.13358 8.89839 4.19592C8.89839 4.5375 8.62047 4.81542 8.27884 4.81542C8.16903 4.81542 8.06113 4.78621 7.96674 4.73098L7.71611 4.5842L7.49446 4.77183C7.3812 4.8677 7.24295 4.91839 7.09464 4.91839C6.75301 4.91839 6.47509 4.64047 6.47509 4.2989C6.47515 4.12204 6.55127 3.95306 6.68394 3.83537L6.87557 3.6654L6.80693 3.4186C6.79179 3.36413 6.78407 3.30808 6.78407 3.25208C6.78407 2.9105 7.06199 2.63258 7.40363 2.63258C7.51765 2.63258 7.62894 2.6637 7.72551 2.7226L8.04166 2.91542L8.26566 2.6205C8.38411 2.46453 8.56409 2.37512 8.75932 2.37512C9.10095 2.37512 9.37887 2.65304 9.37887 2.99461C9.37887 3.21812 9.25747 3.42516 9.06207 3.53503Z" fill="#363636"/>
<path d="M26.8236 6.03013C26.8236 5.23619 26.1777 4.59033 25.3838 4.59033C25.044 4.59033 24.7243 4.70665 24.4697 4.91703C24.3278 4.87131 24.1789 4.84774 24.028 4.84774C23.2341 4.84774 22.5882 5.49365 22.5882 6.28755C22.5882 6.33655 22.5907 6.38549 22.5957 6.43427C22.3925 6.68796 22.2793 7.00515 22.2793 7.33442C22.2793 8.12837 22.9252 8.77422 23.7192 8.77422C23.9674 8.77422 24.2105 8.70969 24.4246 8.58932C24.5777 8.6433 24.7397 8.67125 24.9032 8.67125C25.6972 8.67125 26.3431 8.02534 26.3431 7.23144C26.3431 7.19021 26.3413 7.14903 26.3378 7.10818C26.6429 6.83786 26.8236 6.44636 26.8236 6.03013ZM25.6865 6.57061L25.3981 6.73275L25.4955 7.0489C25.5136 7.10769 25.5228 7.1691 25.5228 7.23144C25.5228 7.57302 25.2449 7.85094 24.9032 7.85094C24.7934 7.85094 24.6855 7.82174 24.5911 7.7665L24.3405 7.61972L24.1189 7.80735C24.0056 7.90322 23.8674 7.95391 23.719 7.95391C23.3774 7.95391 23.0995 7.676 23.0995 7.33442C23.0995 7.15762 23.1756 6.98863 23.3083 6.87089L23.4999 6.70098L23.4313 6.45423C23.4161 6.39965 23.4084 6.3436 23.4084 6.28755C23.4084 5.94597 23.6863 5.66805 24.028 5.66805C24.142 5.66805 24.2533 5.69917 24.3497 5.75807L24.6659 5.951L24.89 5.65602C25.0085 5.5 25.1884 5.41058 25.3837 5.41058C25.7253 5.41058 26.0032 5.6885 26.0032 6.03008C26.0033 6.25369 25.8819 6.46074 25.6865 6.57061Z" fill="#363636"/>
<path d="M22.4588 2.48761C22.2461 2.17452 21.9365 1.95517 21.581 1.85827C21.5358 1.69322 21.4634 1.53594 21.3661 1.39277C21.1313 1.04715 20.7759 0.813637 20.3655 0.735325C19.9549 0.657013 19.5386 0.743254 19.193 0.978026C18.6423 1.35225 18.3974 2.03737 18.5579 2.66365C18.1114 3.18864 18.0542 3.96799 18.4545 4.55719C18.6893 4.90281 19.0447 5.13632 19.4551 5.21463C19.554 5.2335 19.6532 5.24285 19.7517 5.24285C20.062 5.2428 20.3652 5.15021 20.6276 4.97188C20.6716 4.94202 20.7139 4.91003 20.7544 4.87601C21.1906 4.99419 21.6631 4.91954 22.0441 4.66065H22.0441C22.7575 4.17591 22.9436 3.20111 22.4588 2.48761ZM21.8958 3.50621C21.8586 3.70139 21.7475 3.87043 21.5831 3.98215H21.5831C21.361 4.13303 21.0734 4.15223 20.8324 4.03224L20.5364 3.88497L20.3296 4.14304C20.2833 4.20084 20.2284 4.25143 20.1666 4.29348C20.0022 4.40516 19.8042 4.44623 19.609 4.40887C19.4137 4.37158 19.2448 4.26056 19.133 4.09617C18.9148 3.77505 18.9823 3.33531 19.2866 3.09502L19.545 2.89098L19.4017 2.59458C19.2426 2.26558 19.3511 1.86226 19.654 1.65647C19.7788 1.57171 19.923 1.52769 20.0706 1.52769C20.1175 1.52769 20.1646 1.53212 20.2117 1.54108C20.4069 1.57838 20.5759 1.6894 20.6876 1.85378C20.7646 1.96704 20.8088 2.09867 20.8154 2.23435L20.8336 2.60431L21.2034 2.62383C21.4383 2.6363 21.6486 2.7547 21.7804 2.94857C21.892 3.11295 21.9331 3.31103 21.8958 3.50621Z" fill="#363636"/>
<path d="M22.559 12.2315C22.559 12.0112 22.5077 11.7936 22.4117 11.5974C22.5087 11.4012 22.559 11.1855 22.559 10.9612C22.559 10.2645 22.0617 9.68198 21.4035 9.54969C21.4791 9.37333 21.52 9.18116 21.52 8.98341C21.52 8.18941 20.874 7.5435 20.0801 7.5435C19.8636 7.5435 19.6526 7.59201 19.4607 7.68361C19.1134 7.35111 18.6486 7.16069 18.1567 7.16069C18.0304 7.16069 17.9057 7.1731 17.7835 7.19777C17.6722 7.08686 17.5439 6.99532 17.4037 6.92641C17.6892 6.6375 17.856 6.24364 17.856 5.82693C17.856 4.96424 17.1542 4.26233 16.2914 4.26233C15.9133 4.26233 15.5578 4.39522 15.2777 4.6348C15.1159 4.57962 14.9451 4.55113 14.7722 4.55113C14.4648 4.55113 14.1711 4.63972 13.9211 4.80236C13.3991 4.30958 12.5857 4.22645 11.968 4.64612C11.4398 5.00509 11.193 5.65034 11.3154 6.25534C10.7035 6.36893 10.2263 6.87079 10.1498 7.49472C9.97363 7.4438 9.77326 7.41668 9.55079 7.43577C9.21119 7.46464 8.91052 7.57823 8.67635 7.76252C8.53307 7.71587 8.38246 7.69186 8.22988 7.69186C7.43588 7.69186 6.78997 8.33783 6.78997 9.13177C6.78997 9.18077 6.79243 9.22956 6.79741 9.27806C6.59425 9.53176 6.48099 9.84905 6.48099 10.1785C6.48099 10.4162 6.53841 10.6427 6.64215 10.8428C5.82163 10.8901 5.1685 11.5723 5.1685 12.4042C5.1685 12.7954 5.31484 13.1656 5.56826 13.4486C5.16905 13.9398 4.9713 14.5718 5.02298 15.2059L7.25416 28.7074H20.0904L22.3174 15.2395L22.3216 15.2059C22.3609 14.7234 22.2558 14.2421 22.0274 13.8232C22.0608 13.6929 22.0781 13.5606 22.0781 13.4325C22.0781 13.3913 22.0764 13.3503 22.0729 13.3095C22.3782 13.0391 22.559 12.6476 22.559 12.2315ZM7.95021 27.8868L5.83951 15.123C5.80648 14.665 5.95949 14.2274 6.27126 13.8891C6.58665 13.5469 7.01659 13.3585 7.48198 13.3585H7.4991C8.3876 13.3585 9.11034 14.054 9.14452 14.9418L9.14485 14.9501L9.14873 14.9996C9.14868 15.0331 9.14928 15.0665 9.15059 15.1001L10.1661 27.8868H7.95021ZM10.9891 27.8868L9.96931 14.9712C9.97719 14.5559 10.1385 14.1655 10.4291 13.8634C10.7424 13.5379 11.1638 13.3585 11.6157 13.3585C12.5236 13.3585 13.2623 14.0973 13.2623 15.0052V27.8868H10.9891ZM14.0827 27.8869V15.0052C14.0827 14.0973 14.8214 13.3586 15.7293 13.3586C16.1812 13.3586 16.6026 13.5379 16.9159 13.8635C17.2066 14.1656 17.3679 14.5559 17.3757 14.9713L16.3559 27.8869H14.0827ZM21.5054 15.123L19.3947 27.8868H17.1789L18.1934 15.1168L18.1944 15.1C18.1957 15.0664 18.1963 15.0328 18.1963 14.9994L18.1995 14.9583L18.2005 14.9418C18.2347 14.054 18.9574 13.3585 19.8459 13.3585H19.863C20.3284 13.3585 20.7584 13.5469 21.0737 13.8891C21.3855 14.2274 21.5385 14.665 21.5054 15.123ZM21.4217 12.7717L21.1698 12.9135C20.7811 12.6711 20.328 12.5383 19.863 12.5383H19.8459C18.9848 12.5383 18.2277 12.9744 17.7864 13.6423C17.7047 13.5198 17.6114 13.4034 17.5068 13.2948C17.0375 12.807 16.4061 12.5383 15.7292 12.5383C14.8714 12.5383 14.1145 12.9784 13.6724 13.6446C13.2302 12.9784 12.4733 12.5383 11.6156 12.5383C10.9386 12.5383 10.3073 12.807 9.83796 13.2948C9.73339 13.4034 9.64004 13.5197 9.55834 13.6423C9.11707 12.9744 8.35998 12.5383 7.49894 12.5383H7.48182C7.02075 12.5383 6.57144 12.6688 6.18497 12.9073C6.06077 12.7717 5.98886 12.593 5.98886 12.4041C5.98886 11.994 6.32273 11.6603 6.73315 11.6603C6.87003 11.6603 7.00374 11.6977 7.11973 11.7683L7.43555 11.9607L7.6595 11.6664C7.70877 11.6016 7.76871 11.5451 7.83756 11.4986L8.53766 11.0246L7.73207 10.7681C7.47449 10.6861 7.30141 10.4491 7.30141 10.1784C7.30141 10.0014 7.37747 9.83237 7.51015 9.71468L7.70199 9.54455L7.63297 9.29748C7.61799 9.24383 7.61039 9.18805 7.61039 9.13172C7.61039 8.79009 7.88836 8.51212 8.22999 8.51212C8.34423 8.51212 8.45547 8.54312 8.55166 8.60191L8.86792 8.79501L9.09202 8.49987C9.22743 8.32159 9.45416 8.26728 9.62052 8.25306C9.98435 8.22244 10.2501 8.43796 10.4087 8.56708C10.4578 8.60694 10.5002 8.64145 10.5464 8.66945L10.8653 8.86239L11.0856 8.56615L11.2866 8.3019L11.0912 8.05285C11.005 7.94282 10.9594 7.81081 10.9594 7.67103C10.9594 7.33164 11.2336 7.05509 11.5722 7.05148L11.8033 7.06466L11.9353 6.89283C11.9735 6.84312 12.0161 6.79954 12.0619 6.76339L12.32 6.55941L12.1768 6.26317C12.0177 5.93389 12.1261 5.53047 12.429 5.32463C12.7684 5.0939 13.2321 5.1826 13.4624 5.52166C13.4761 5.54179 13.4896 5.56487 13.5029 5.59019L13.7955 6.151L14.1881 5.65499C14.3307 5.47485 14.5436 5.37149 14.7721 5.37149C14.909 5.37149 15.0427 5.40884 15.1587 5.4795L15.4744 5.67183L15.6983 5.37767C15.841 5.19026 16.0572 5.08274 16.2913 5.08274C16.7017 5.08274 17.0356 5.41661 17.0356 5.82704C17.0356 6.09544 16.8899 6.34394 16.6555 6.47557L16.3678 6.63701L16.4638 6.9526C16.485 7.02206 16.4961 7.09342 16.4969 7.16506C16.4962 7.176 16.4958 7.1871 16.4958 7.19853V7.55755L16.8517 7.60502C17.032 7.62908 17.1922 7.73162 17.291 7.88639L17.4704 8.16704L17.7818 8.04919C17.9012 8.00402 18.0273 7.9811 18.1567 7.9811C18.513 7.9811 18.8442 8.15785 19.0427 8.45393L19.3086 8.85052L19.6605 8.52787C19.7759 8.4221 19.9249 8.36391 20.0801 8.36391C20.4218 8.36391 20.6997 8.64189 20.6997 8.98352C20.6997 9.20686 20.5782 9.41396 20.3826 9.52405L20.0927 9.68718L20.1925 10.0045C20.202 10.0349 20.2091 10.0695 20.2135 10.1076L20.2842 10.7166L20.8201 10.4188C20.9106 10.3686 21.014 10.342 21.1191 10.342C21.4608 10.342 21.7387 10.6197 21.7387 10.9611C21.7387 11.1012 21.6931 11.2334 21.6068 11.3434L21.408 11.597L21.6073 11.8499C21.6933 11.9593 21.7387 12.0911 21.7387 12.2312C21.7387 12.4546 21.6172 12.6617 21.4217 12.7717Z" fill="#363636"/>
<path d="M15.0656 8.50036C14.9441 8.50036 14.8253 8.5183 14.712 8.55324C14.4264 8.24421 14.0226 8.06287 13.5891 8.06287C12.8567 8.06287 12.2428 8.57971 12.0928 9.26773C11.2829 9.30667 10.636 9.97779 10.636 10.7972H11.4563C11.4563 10.4052 11.7752 10.0863 12.1672 10.0863C12.2316 10.0863 12.2974 10.0957 12.3628 10.1145L12.9514 10.2827L12.8831 9.67433C12.8798 9.64453 12.8782 9.61833 12.8782 9.5941C12.8782 9.20211 13.1971 8.88317 13.5891 8.88317C13.8543 8.88317 14.0957 9.02979 14.2191 9.26571L14.4456 9.69888L14.8328 9.40057C14.8801 9.36409 14.9589 9.32067 15.0656 9.32067C15.2767 9.32067 15.4484 9.49244 15.4484 9.70348H16.2688C16.2688 9.04007 15.729 8.50036 15.0656 8.50036Z" fill="#363636"/>
<path d="M17.8 10.0043C17.3988 10.0043 17.0202 10.1768 16.7547 10.4646C16.6087 10.4134 16.4543 10.3871 16.2961 10.3871C15.5272 10.3871 14.9016 11.0126 14.9016 11.7816H15.7219C15.7219 11.465 15.9795 11.2074 16.2961 11.2074C16.4203 11.2074 16.5391 11.2473 16.6396 11.3228L17.0417 11.6248L17.2567 11.1701C17.3559 10.9602 17.5692 10.8246 17.8 10.8246C18.1317 10.8246 18.4016 11.0945 18.4016 11.4261H19.2219C19.2218 10.6421 18.5841 10.0043 17.8 10.0043Z" fill="#363636"/>
<path d="M7.46972 14.9285L6.6604 15.0624L7.18715 18.2468L7.99647 18.1129L7.46972 14.9285Z" fill="#363636"/>
<path d="M8.76537 22.7622L7.95605 22.896L8.28456 24.8831L9.09387 24.7493L8.76537 22.7622Z" fill="#363636"/>
<path d="M14.9898 24.3794L14.9053 25.4436L15.723 25.5086L15.8076 24.4444L14.9898 24.3794Z" fill="#363636"/>
<path d="M15.4933 18.036L15.2456 21.1534L16.0634 21.2184L16.311 18.101L15.4933 18.036Z" fill="#363636"/>
<path d="M15.7373 14.9659L15.5933 16.7792L16.411 16.8441L16.5551 15.0308L15.7373 14.9659Z" fill="#363636"/>
</g>
<defs>
<clipPath id="clip0">
<rect width="28" height="28" fill="white" transform="translate(0 0.707275)"/>
</clipPath>
</defs>
</svg>
