<svg width="28" height="29" viewBox="0 0 28 29" fill="none" xmlns="http://www.w3.org/2000/svg">
<path d="M25.6193 7.58093C24.3425 6.56336 22.5404 5.73025 20.263 5.10484C15.883 3.90205 10.9438 3.77222 9.02349 3.77222C4.04791 3.77222 0 7.82019 0 12.7958V16.619C0 21.5946 4.04791 25.6425 9.02349 25.6425C11.3178 25.6425 13.0408 24.9238 14.865 24.1629C16.7515 23.376 18.7022 22.5623 21.4456 22.5623C25.0597 22.5623 28 19.622 28 16.008V12.1848C28 10.3889 27.199 8.83994 25.6193 7.58093ZM25.1588 16.93C25.3658 17.15 25.7119 17.1603 25.9318 16.9533C26.3027 16.6041 26.629 16.215 26.9062 15.796V16.008C26.9062 19.019 24.4566 21.4686 21.4456 21.4686C18.4832 21.4686 16.4298 22.3251 14.444 23.1534C12.7237 23.871 11.0988 24.5488 9.02349 24.5488C4.8224 24.5488 1.37441 21.2646 1.11059 17.1289C2.64622 19.9219 5.61734 21.8192 9.02349 21.8192C11.3178 21.8192 13.0408 21.1005 14.865 20.3396C16.7515 19.5527 18.7022 18.739 21.4456 18.739C21.6495 18.739 21.8554 18.7294 22.0577 18.7105C22.3584 18.6823 22.5794 18.4157 22.5512 18.115C22.523 17.8143 22.2561 17.5934 21.9557 17.6216C21.7871 17.6373 21.6156 17.6453 21.4456 17.6453C18.4832 17.6453 16.4298 18.5019 14.444 19.3302C12.7237 20.0477 11.0988 20.7255 9.02349 20.7255C4.65101 20.7255 1.09375 17.1682 1.09375 12.7958C1.09375 8.42333 4.65101 4.86602 9.02349 4.86602C10.8994 4.86602 15.7217 4.99208 19.9734 6.1596C24.5737 7.42294 26.9062 9.45009 26.9062 12.1848C26.9062 13.6775 26.2778 15.1253 25.1821 16.1569C24.9622 16.364 24.9517 16.7101 25.1588 16.93Z" fill="#363636"/>
<path d="M24.7089 17.2789C24.5802 17.0056 24.2543 16.8883 23.9812 17.0169C23.9772 17.0187 23.972 17.0213 23.9682 17.0232C23.6981 17.1583 23.5886 17.4868 23.7236 17.7569C23.8194 17.9485 24.0126 18.0593 24.2132 18.0593C24.2943 18.0593 24.3765 18.0412 24.4541 18.0031C24.7222 17.8722 24.8363 17.5497 24.7089 17.2789Z" fill="#363636"/>
<path d="M12.9711 6.11373L12.943 6.11143C12.6414 6.08792 12.3783 6.31203 12.3543 6.61314C12.3303 6.91419 12.5549 7.17773 12.8559 7.20179L12.8839 7.20398C12.8987 7.20518 12.9134 7.20579 12.9281 7.20579C13.2103 7.20579 13.4497 6.98868 13.4727 6.7025C13.4967 6.40139 13.2722 6.13785 12.9711 6.11373Z" fill="#363636"/>
<path d="M25.4709 10.7114C24.9285 9.63935 23.7215 8.71284 21.8835 7.95771C20.3962 7.34669 18.7698 6.9607 17.6672 6.74441C17.0064 6.61486 16.314 6.49914 15.609 6.40059C15.3101 6.35838 15.0336 6.56728 14.9917 6.86648C14.9498 7.16562 15.1584 7.44195 15.4576 7.48379C16.1428 7.5796 16.8154 7.69199 17.4567 7.81777C21.2132 8.55446 23.7785 9.78914 24.4949 11.2051C24.6454 11.5027 24.7186 11.8231 24.7186 12.1847C24.7186 13.9894 23.2503 15.4577 21.4455 15.4577C19.6207 15.4577 17.8487 15.7559 16.0281 16.3695C15.244 16.6338 14.4826 16.9497 13.7464 17.2553C13.2594 17.4574 12.7558 17.6664 12.256 17.8558C10.9946 18.3338 10.0278 18.5378 9.02336 18.5378C5.85706 18.5378 3.28106 15.9619 3.28106 12.7956C3.28106 9.62935 5.85706 7.05334 9.02336 7.05334C9.64105 7.05334 10.2682 7.06505 10.8871 7.08813C10.9922 7.09201 11.0973 7.09622 11.2025 7.10087C11.504 7.11454 11.7597 6.88037 11.773 6.5786C11.7863 6.27689 11.5525 6.02145 11.2508 6.00816C11.143 6.0034 11.0353 5.99908 10.9278 5.99509C10.2953 5.97152 9.65456 5.95959 9.0233 5.95959C5.25391 5.95959 2.18726 9.0262 2.18726 12.7956C2.18726 16.565 5.25386 19.6316 9.0233 19.6316C10.1682 19.6316 11.2509 19.4064 12.6436 18.8785C13.1593 18.6831 13.6709 18.4708 14.1656 18.2654C14.8849 17.9669 15.6287 17.6582 16.3774 17.4059C18.0835 16.8309 19.7413 16.5514 21.4455 16.5514C23.8534 16.5515 25.8124 14.5926 25.8124 12.1847C25.8124 11.6476 25.7006 11.1657 25.4709 10.7114Z" fill="#363636"/>
<path d="M9.54737 8.13513C8.01853 8.13513 6.77466 9.26306 6.77466 10.6495C6.77466 12.0359 8.01853 13.1639 9.54737 13.1639C11.0763 13.1639 12.3201 12.0359 12.3201 10.6495C12.3201 9.26306 11.0763 8.13513 9.54737 8.13513ZM9.54737 12.0701C8.62156 12.0701 7.86841 11.4328 7.86841 10.6494C7.86841 9.86616 8.62156 9.22883 9.54737 9.22883C10.4732 9.22883 11.2263 9.8661 11.2263 10.6494C11.2263 11.4328 10.4732 12.0701 9.54737 12.0701Z" fill="#363636"/>
</svg>
