<svg width="28" height="28" viewBox="0 0 28 28" fill="none" xmlns="http://www.w3.org/2000/svg">
<g clip-path="url(#clip0)">
<path d="M11.4008 13.1038C11.6875 13.1038 11.9203 12.8716 11.9203 12.5843V10.6843C11.9203 10.6068 11.9139 10.5305 11.9088 10.4547L12.0688 10.6147C12.1703 10.716 12.3031 10.7668 12.436 10.7668C12.5691 10.7668 12.702 10.716 12.8034 10.6147L12.9716 10.4464C12.966 10.5254 12.9596 10.6042 12.9596 10.6848V12.5849C12.9596 12.8721 13.1924 13.1043 13.4791 13.1043H15.3791C17.1955 13.1043 18.6734 11.6266 18.6734 9.81062V7.91002C18.6734 7.6227 18.4405 7.39049 18.1538 7.39049H16.2539C15.8239 7.39049 15.4139 7.47572 15.0369 7.62654C15.2592 6.57253 14.9642 5.42986 14.1471 4.61275L12.8034 3.26884C12.6003 3.0659 12.2719 3.0659 12.069 3.26884L10.7247 4.61211C9.90863 5.42815 9.61319 6.56932 9.8345 7.62227C9.45981 7.47359 9.05328 7.38942 8.62625 7.38942H6.72607C6.43939 7.38942 6.20654 7.62163 6.20654 7.90895V9.80956C6.20654 11.6254 7.68439 13.1032 9.50082 13.1032H11.4008V13.1038ZM17.6339 8.42891V9.80998C17.6339 11.0535 16.6219 12.0648 15.3787 12.0648H13.998V10.6841C13.998 9.4402 15.0097 8.42891 16.2532 8.42891H17.6339ZM11.4591 5.34676L12.4356 4.37007L13.412 5.34676C14.2909 6.2256 14.2909 7.65645 13.412 8.53593L12.4356 9.51241L11.4591 8.53593C10.58 7.65666 10.58 6.2256 11.4591 5.34676ZM7.24561 9.8102V8.42891H8.62625C9.86954 8.42891 10.8815 9.4402 10.8815 10.6843V12.065H9.50082C8.25732 12.0648 7.24561 11.0531 7.24561 9.8102Z" fill="#363636"/>
<path d="M13.9973 17.1407C13.1382 17.1407 12.439 17.8399 12.439 18.6991H13.4778C13.4778 18.4124 13.7111 18.1796 13.9973 18.1796C14.2834 18.1796 14.5167 18.4124 14.5167 18.6991H15.5555C15.5555 17.8399 14.8565 17.1407 13.9973 17.1407Z" fill="#363636"/>
<path d="M18.1521 17.6602C17.2929 17.6602 16.5938 18.3592 16.5938 19.2184H17.6326C17.6326 18.9317 17.8659 18.6991 18.1521 18.6991C18.4382 18.6991 18.6714 18.9317 18.6714 19.2184H19.7103C19.7103 18.3592 19.0111 17.6602 18.1521 17.6602Z" fill="#363636"/>
<path d="M22.0566 15.6854L23.8491 8.96423C23.8606 8.92044 23.8668 8.87537 23.8668 8.83029C23.8668 8.25736 23.4009 7.79123 22.828 7.79123H21.7891C21.5994 7.79123 21.423 7.84528 21.2696 7.93415V0.51953C21.2696 0.232208 21.037 0 20.7501 0H4.65129C4.64873 0 4.64617 0.00149536 4.6436 0.00149536C4.64104 0.00149536 4.63848 0 4.63591 0H1.01224C0.725555 0 0.49292 0.232208 0.49292 0.51953V24.4128C0.49292 24.62 0.616607 24.8082 0.807158 24.8902L4.43062 26.4484C4.49663 26.4764 4.56627 26.4905 4.63591 26.4905C4.6389 26.4905 4.64211 26.4896 4.64531 26.4896C4.64723 26.4896 4.64937 26.4905 4.65151 26.4905H12.6059C14.1111 27.4411 15.8874 27.9999 17.7959 27.9999C23.176 27.9999 27.5537 23.6228 27.5537 18.2427V18.1887C27.5537 16.6382 24.3468 15.967 22.0566 15.6854ZM21.7891 8.83008H22.8098L20.8979 16.0007V16.0016C20.8979 16.0027 20.8973 16.0033 20.8973 16.0033L20.5877 17.1921C20.5155 17.4696 20.6817 17.7531 20.9597 17.8259C21.0032 17.8368 21.0474 17.8426 21.0906 17.8426C21.3211 17.8426 21.5319 17.6877 21.5928 17.454L21.7887 16.7018C25.3342 17.1199 26.5149 17.9406 26.5149 18.1891C26.5149 18.7001 23.5485 19.8996 17.7959 19.8996C12.0435 19.8996 9.07712 18.7003 9.07712 18.1891C9.07712 17.6775 12.0435 16.4782 17.7959 16.4782C18.1035 16.4782 18.3979 16.4902 18.6972 16.4978L18.6 16.8843C18.5299 17.1628 18.6987 17.4448 18.9772 17.5149C19.0197 17.5258 19.0623 17.5305 19.1043 17.5305C19.3365 17.5305 19.548 17.3731 19.6078 17.1379L19.8623 16.127L21.7723 8.96402C21.7834 8.92044 21.7891 8.87537 21.7891 8.83008ZM4.11638 25.182L1.53177 24.0705V1.03885H4.11638V25.182ZM11.2262 25.4516H5.17082V1.03885H20.231V10.71L18.9646 15.459C18.5818 15.447 18.1928 15.4391 17.7959 15.4391C14.4207 15.4391 8.03806 16.0138 8.03806 18.1891V18.2429C8.03806 18.5858 8.05665 18.9244 8.09147 19.2581C8.10193 19.3572 8.1233 19.4537 8.13675 19.5524C8.16794 19.7853 8.19913 20.0179 8.24698 20.245C8.2739 20.3742 8.31342 20.4988 8.34504 20.6267C8.39332 20.8179 8.4386 21.0095 8.49778 21.196C8.54499 21.3445 8.60437 21.4878 8.65821 21.6333C8.71695 21.7912 8.7725 21.9512 8.83914 22.1048C8.90708 22.2622 8.98612 22.4145 9.06238 22.5681C9.12946 22.7034 9.19376 22.8399 9.26703 22.9712C9.35376 23.1276 9.44989 23.2778 9.54495 23.4288C9.62186 23.551 9.69769 23.6741 9.77972 23.7924C9.88055 23.9375 9.98801 24.0765 10.0965 24.2162C10.189 24.3352 10.2815 24.4538 10.3791 24.5679C10.4866 24.6937 10.5994 24.8152 10.7137 24.9361C10.829 25.0581 10.9459 25.1771 11.0674 25.2931C11.1228 25.3442 11.1706 25.4012 11.2262 25.4516ZM17.7963 26.9611C16.0209 26.9611 14.3698 26.4249 12.9907 25.5104C12.9247 25.4668 12.8612 25.42 12.7969 25.3747C12.6482 25.2705 12.5023 25.1617 12.3607 25.0487C12.3092 25.0077 12.2562 24.9675 12.2058 24.925C12.0208 24.7704 11.8422 24.6082 11.6714 24.4388C11.6395 24.4072 11.609 24.375 11.5778 24.3429C11.409 24.1709 11.2458 23.9938 11.0922 23.8082C11.0828 23.7973 11.073 23.7864 11.064 23.7755C10.8978 23.5734 10.7415 23.3637 10.5941 23.147C10.5763 23.1212 10.5588 23.0945 10.5415 23.068C10.2533 22.6359 10.0034 22.1768 9.79468 21.6953C9.77759 21.6553 9.75986 21.6152 9.74319 21.5752C9.64557 21.3409 9.5567 21.1016 9.4798 20.8574C9.46997 20.8267 9.46228 20.7951 9.45288 20.7645C9.38538 20.5426 9.3277 20.3161 9.27835 20.0871C9.26853 20.0414 9.25699 19.9961 9.24759 19.95C9.22367 19.831 9.21128 19.709 9.19205 19.5885C11.1869 20.6242 15.3078 20.9373 17.7957 20.9373C20.2844 20.9373 24.405 20.6242 26.3993 19.5885C25.7493 23.7578 22.145 26.9611 17.7963 26.9611Z" fill="#363636"/>
</g>
<defs>
<clipPath id="clip0">
<rect width="28" height="28" fill="white"/>
</clipPath>
</defs>
</svg>
