<svg width="24" height="24" viewBox="0 0 24 24" fill="none" xmlns="http://www.w3.org/2000/svg">
<path fill-rule="evenodd" clip-rule="evenodd" d="M11.9996 1.68994C12.2649 1.68982 12.5195 1.79519 12.7071 1.98283L18.3669 7.6426C18.367 7.64268 18.3668 7.64253 18.3669 7.6426C19.626 8.90101 20.4839 10.5048 20.8316 12.2507C21.1794 13.9967 21.0015 15.8066 20.3205 17.4514C19.6395 19.0963 18.4859 20.5023 17.0058 21.4915C15.5256 22.4807 13.7853 23.0086 12.005 23.0086C10.2247 23.0086 8.48443 22.4807 7.00426 21.4915C5.52409 20.5023 4.37054 19.0963 3.68953 17.4514C3.00851 15.8066 2.83063 13.9967 3.17837 12.2507C3.52606 10.505 4.3836 8.90155 5.64253 7.6432C5.64273 7.643 5.64233 7.6434 5.64253 7.6432L11.2923 1.98346C11.4798 1.79565 11.7342 1.69006 11.9996 1.68994ZM12.0006 4.10478L7.05688 9.05728C6.07746 10.0361 5.41032 11.2833 5.13985 12.6413C4.86938 13.9993 5.00773 15.407 5.53741 16.6864C6.06709 17.9657 6.9643 19.0592 8.11554 19.8286C9.26678 20.598 10.6203 21.0086 12.005 21.0086C13.3897 21.0086 14.7432 20.598 15.8945 19.8286C17.0457 19.0592 17.9429 17.9657 18.4726 16.6864C19.0023 15.407 19.1406 13.9993 18.8702 12.6413C18.5997 11.2833 17.9326 10.0361 16.9531 9.05728L12.0006 4.10478Z" fill="#363636"/>
</svg>
