<svg width="24" height="24" viewBox="0 0 24 24" fill="none" xmlns="http://www.w3.org/2000/svg">
<g clip-path="url(#clip0)">
<path fill-rule="evenodd" clip-rule="evenodd" d="M11 1.92C10.7348 1.92 10.4804 2.02114 10.2929 2.20118C10.1054 2.38121 10 2.62539 10 2.88V10.9267L12.5528 9.70135C12.6916 9.6347 12.8448 9.6 13 9.6H21C21.2652 9.6 21.5196 9.49886 21.7071 9.31882C21.8946 9.13879 22 8.89461 22 8.64V2.88C22 2.62539 21.8946 2.38121 21.7071 2.20118C21.5196 2.02114 21.2652 1.92 21 1.92H11ZM8.87868 0.843533C9.44129 0.303428 10.2043 0 11 0H21C21.7956 0 22.5587 0.303428 23.1213 0.843533C23.6839 1.38364 24 2.11618 24 2.88V8.64C24 9.40382 23.6839 10.1364 23.1213 10.6765C22.5587 11.2166 21.7956 11.52 21 11.52H13.2361L9.44721 13.3386C9.13723 13.4874 8.76909 13.4715 8.47427 13.2966C8.17945 13.1217 8 12.8127 8 12.48V2.88C8 2.11618 8.31607 1.38364 8.87868 0.843533Z" fill="#363636"/>
<path fill-rule="evenodd" clip-rule="evenodd" d="M1.87868 2.76358C2.44129 2.22347 3.20435 1.92004 4 1.92004H5.5C6.05228 1.92004 6.5 2.34985 6.5 2.88004C6.5 3.41024 6.05228 3.84004 5.5 3.84004H4C3.73478 3.84004 3.48043 3.94119 3.29289 4.12122C3.10536 4.30126 3 4.54544 3 4.80004V20.16C3 20.4147 3.10536 20.6588 3.29289 20.8389C3.48043 21.0189 3.73478 21.12 4 21.12H15C15.2652 21.12 15.5196 21.0189 15.7071 20.8389C15.8946 20.6588 16 20.4146 16 20.16V14.4C16 13.8699 16.4477 13.44 17 13.44C17.5523 13.44 18 13.8699 18 14.4V20.16C18 20.9239 17.6839 21.6564 17.1213 22.1965C16.5587 22.7366 15.7957 23.04 15 23.04H4C3.20435 23.04 2.44129 22.7366 1.87868 22.1965C1.31607 21.6564 1 20.9239 1 20.16V4.80004C1 4.03622 1.31607 3.30368 1.87868 2.76358Z" fill="#363636"/>
<ellipse cx="10" cy="18.24" rx="1" ry="0.96" fill="#363636"/>
</g>
<defs>
<clipPath id="clip0">
<rect width="24" height="23.04" fill="white"/>
</clipPath>
</defs>
</svg>
