<svg width="28" height="28" viewBox="0 0 28 28" fill="none" xmlns="http://www.w3.org/2000/svg">
<path d="M27.7077 26.2784H20.6916C20.5302 26.2784 20.3992 26.1475 20.3992 25.9861V3.37782C20.3992 2.46485 21.1419 1.72217 22.0549 1.72217H26.3444C27.2573 1.72217 28 2.46485 28 3.37782V25.9861C28 26.1475 27.869 26.2784 27.7077 26.2784ZM20.9839 25.6938H27.4153V3.37782C27.4153 2.7873 26.9349 2.30684 26.3444 2.30684H22.0549C21.4644 2.30684 20.9839 2.7873 20.9839 3.37782V25.6938ZM18.1005 26.2784H9.91503C9.75366 26.2784 9.6227 26.1475 9.6227 25.9861V18.7132C9.6227 17.8608 10.3163 17.1672 11.1687 17.1672H11.6569V16.9583C11.6569 16.7969 11.7879 16.666 11.9493 16.666C12.1106 16.666 12.2416 16.7969 12.2416 16.9583V17.1672H12.6862V16.9583C12.6862 16.7969 12.8172 16.666 12.9786 16.666C13.1399 16.666 13.2709 16.7969 13.2709 16.9583V17.1672H13.7154V16.9583C13.7154 16.7969 13.8464 16.666 14.0077 16.666C14.1691 16.666 14.3001 16.7969 14.3001 16.9583V17.1672H14.7447V16.9583C14.7447 16.7969 14.8757 16.666 15.0371 16.666C15.1984 16.666 15.3294 16.7969 15.3294 16.9583V17.1672H15.774V16.9583C15.774 16.7969 15.905 16.666 16.0664 16.666C16.2278 16.666 16.3587 16.7969 16.3587 16.9583V17.1672H16.8468C17.6992 17.1672 18.3928 17.8608 18.3928 18.7132V25.9861C18.3928 26.1475 18.262 26.2784 18.1005 26.2784ZM10.2074 25.6938H17.8081V18.7132C17.8081 18.1831 17.3769 17.7519 16.8468 17.7519H11.1687C10.6386 17.7519 10.2074 18.1831 10.2074 18.7132V25.6938ZM7.30842 26.2784H0.292337C0.130967 26.2784 0 26.1475 0 25.9861V3.37782C0 2.46485 0.742681 1.72217 1.65565 1.72217H5.9451C6.85807 1.72217 7.60075 2.46485 7.60075 3.37782V25.9861C7.60075 26.1475 7.46979 26.2784 7.30842 26.2784ZM0.584673 25.6938H7.01608V3.37782C7.01608 2.7873 6.53562 2.30684 5.9451 2.30684H1.65565C1.06513 2.30684 0.584673 2.7873 0.584673 3.37782V25.6938ZM25.3628 24.8219H23.0364C22.875 24.8219 22.7441 24.6909 22.7441 24.5295C22.7441 24.3682 22.875 24.2372 23.0364 24.2372H25.3628C25.5242 24.2372 25.6552 24.3682 25.6552 24.5295C25.6552 24.6909 25.5242 24.8219 25.3628 24.8219ZM14.0077 24.8219C13.1869 24.8219 12.5189 24.154 12.5189 23.333C12.5189 22.512 13.1867 21.844 14.0077 21.844C14.8288 21.844 15.4968 22.5118 15.4968 23.333C15.4968 24.154 14.8288 24.8219 14.0077 24.8219ZM14.0077 22.4288C13.5092 22.4288 13.1036 22.8344 13.1036 23.3332C13.1036 23.8319 13.509 24.2373 14.0077 24.2373C14.5065 24.2373 14.9121 23.8319 14.9121 23.3332C14.9121 22.8344 14.5063 22.4288 14.0077 22.4288ZM4.96358 24.8219H2.63717C2.4758 24.8219 2.34483 24.6909 2.34483 24.5295C2.34483 24.3682 2.4758 24.2372 2.63717 24.2372H4.96358C5.12495 24.2372 5.25592 24.3682 5.25592 24.5295C5.25592 24.6909 5.1251 24.8219 4.96358 24.8219ZM24.1996 14.0902C22.8698 14.0902 21.7878 13.0083 21.7878 11.6784C21.7878 10.3486 22.8698 9.26665 24.1996 9.26665C25.5295 9.26665 26.6114 10.3486 26.6114 11.6784C26.6114 13.0083 25.5293 14.0902 24.1996 14.0902ZM24.1996 9.85132C23.1921 9.85132 22.3725 10.6709 22.3725 11.6784C22.3725 12.686 23.1921 13.5055 24.1996 13.5055C25.2072 13.5055 26.0267 12.686 26.0267 11.6784C26.0267 10.6709 25.207 9.85132 24.1996 9.85132ZM3.80038 14.0902C2.47054 14.0902 1.3886 13.0083 1.3886 11.6784C1.3886 10.3486 2.47054 9.26665 3.80038 9.26665C5.13022 9.26665 6.21215 10.3486 6.21215 11.6784C6.21215 13.0083 5.13022 14.0902 3.80038 14.0902ZM3.80038 9.85132C2.79284 9.85132 1.97327 10.6709 1.97327 11.6784C1.97327 12.686 2.79284 13.5055 3.80038 13.5055C4.80791 13.5055 5.62748 12.686 5.62748 11.6784C5.62748 10.6709 4.80791 9.85132 3.80038 9.85132ZM24.1996 12.726C23.622 12.726 23.152 12.2561 23.152 11.6784C23.152 11.1008 23.622 10.6308 24.1996 10.6308C24.7773 10.6308 25.2472 11.1008 25.2472 11.6784C25.2472 12.2561 24.7773 12.726 24.1996 12.726ZM24.1996 11.2155C23.9444 11.2155 23.7367 11.4232 23.7367 11.6784C23.7367 11.9336 23.9444 12.1413 24.1996 12.1413C24.4548 12.1413 24.6625 11.9336 24.6625 11.6784C24.6625 11.4232 24.4548 11.2155 24.1996 11.2155ZM3.80038 12.726C3.22272 12.726 2.75279 12.2561 2.75279 11.6784C2.75279 11.1008 3.22272 10.6308 3.80038 10.6308C4.37803 10.6308 4.84796 11.1008 4.84796 11.6784C4.84796 12.2561 4.37803 12.726 3.80038 12.726ZM3.80038 11.2155C3.54517 11.2155 3.33746 11.4232 3.33746 11.6784C3.33746 11.9336 3.54517 12.1413 3.80038 12.1413C4.05559 12.1413 4.26329 11.9336 4.26329 11.6784C4.26329 11.4232 4.05559 11.2155 3.80038 11.2155ZM24.1996 8.15284C22.8698 8.15284 21.7878 7.07091 21.7878 5.74107C21.7878 4.41123 22.8698 3.32929 24.1996 3.32929C25.5295 3.32929 26.6114 4.41123 26.6114 5.74107C26.6114 7.07091 25.5293 8.15284 24.1996 8.15284ZM24.1996 3.91396C23.1921 3.91396 22.3725 4.73353 22.3725 5.74107C22.3725 6.7486 23.1921 7.56817 24.1996 7.56817C25.2072 7.56817 26.0267 6.7486 26.0267 5.74107C26.0267 4.73353 25.207 3.91396 24.1996 3.91396ZM3.80038 8.15284C2.47054 8.15284 1.3886 7.07091 1.3886 5.74107C1.3886 4.41123 2.47054 3.32929 3.80038 3.32929C5.13022 3.32929 6.21215 4.41123 6.21215 5.74107C6.21215 7.07091 5.13022 8.15284 3.80038 8.15284ZM3.80038 3.91396C2.79284 3.91396 1.97327 4.73353 1.97327 5.74107C1.97327 6.7486 2.79284 7.56817 3.80038 7.56817C4.80791 7.56817 5.62748 6.7486 5.62748 5.74107C5.62748 4.73353 4.80791 3.91396 3.80038 3.91396ZM24.1996 6.78865C23.622 6.78865 23.152 6.31872 23.152 5.74107C23.152 5.16341 23.622 4.69348 24.1996 4.69348C24.7773 4.69348 25.2472 5.16341 25.2472 5.74107C25.2472 6.31872 24.7773 6.78865 24.1996 6.78865ZM24.1996 5.27815C23.9444 5.27815 23.7367 5.48586 23.7367 5.74107C23.7367 5.99628 23.9444 6.20398 24.1996 6.20398C24.4548 6.20398 24.6625 5.99628 24.6625 5.74107C24.6625 5.48586 24.4548 5.27815 24.1996 5.27815ZM3.80038 6.78865C3.22272 6.78865 2.75279 6.31872 2.75279 5.74107C2.75279 5.16341 3.22272 4.69348 3.80038 4.69348C4.37803 4.69348 4.84796 5.16341 4.84796 5.74107C4.84796 6.31872 4.37803 6.78865 3.80038 6.78865ZM3.80038 5.27815C3.54517 5.27815 3.33746 5.48586 3.33746 5.74107C3.33746 5.99628 3.54517 6.20398 3.80038 6.20398C4.05559 6.20398 4.26329 5.99628 4.26329 5.74107C4.26329 5.48586 4.05559 5.27815 3.80038 5.27815Z" fill="#363636"/>
</svg>
