<svg width="16" height="28" viewBox="0 0 16 28" fill="none" xmlns="http://www.w3.org/2000/svg">
<path d="M13.8903 0.00012207H2.10951C0.982037 0.00012207 0.0718994 0.914341 0.0718994 2.03977V25.9625C0.0718994 27.0869 0.982037 28.0001 2.10951 28.0001H13.8903C15.0157 28.0001 15.9279 27.0869 15.9279 25.9625V2.03977C15.9279 0.914341 15.0157 0.00012207 13.8903 0.00012207ZM5.09296 1.23881H10.9089C11.0558 1.23881 11.1752 1.45818 11.1752 1.72959C11.1752 2.001 11.0558 2.22139 10.9089 2.22139H5.09296C4.94501 2.22139 4.82768 2.001 4.82768 1.72959C4.82768 1.45818 4.94501 1.23881 5.09296 1.23881ZM8.00092 25.987C7.28362 25.987 6.69999 25.4034 6.69999 24.6851C6.69999 23.9667 7.28362 23.3852 8.00092 23.3852C8.71617 23.3852 9.2998 23.9667 9.2998 24.6851C9.2998 25.4034 8.71617 25.987 8.00092 25.987ZM14.4015 21.5292H1.59934V3.44171H14.4015V21.5292Z" fill="#363636"/>
</svg>
