<svg width="28" height="24" viewBox="0 0 28 24" fill="none" xmlns="http://www.w3.org/2000/svg">
<path d="M25.7605 5.23344H21.7826L19.9159 0.566772H8.08407L6.2174 5.23344H5.6V2.90011H2.8V5.23344H2.23953C1.00427 5.23344 0 6.23771 0 7.47297V21.178C0 22.4217 1.01173 23.4334 2.2554 23.4334H25.7446C26.9883 23.4334 28 22.4217 28 21.178V7.47297C28 6.23771 26.9957 5.23344 25.7605 5.23344ZM3.73333 3.83344H4.66667V5.23344H3.73333V3.83344ZM27.0667 21.178C27.0667 21.9074 26.4735 22.5001 25.7446 22.5001H2.2554C1.52647 22.5001 0.933333 21.907 0.933333 21.178V7.47297C0.933333 6.75291 1.51947 6.16677 2.23953 6.16677H2.8H5.6H6.84927L8.71593 1.50011H19.2841L21.1507 6.16677H25.7605C26.4805 6.16677 27.0667 6.75291 27.0667 7.47297V21.178Z" fill="#363636"/>
<path d="M14 4.76678C9.36831 4.76678 5.59998 8.53512 5.59998 13.1668C5.59998 17.7985 9.36831 21.5668 14 21.5668C18.6316 21.5668 22.4 17.7985 22.4 13.1668C22.4 8.53512 18.6316 4.76678 14 4.76678ZM14 20.6335C9.88304 20.6335 6.53331 17.2837 6.53331 13.1668C6.53331 9.04985 9.88304 5.70012 14 5.70012C18.1169 5.70012 21.4666 9.04985 21.4666 13.1668C21.4666 17.2837 18.1169 20.6335 14 20.6335Z" fill="#363636"/>
<path d="M14 7.56677C10.9121 7.56677 8.40002 10.0788 8.40002 13.1668C8.40002 16.2547 10.9121 18.7668 14 18.7668C17.088 18.7668 19.6 16.2547 19.6 13.1668C19.6 10.0788 17.088 7.56677 14 7.56677ZM14 17.8334C11.4268 17.8334 9.33336 15.74 9.33336 13.1668C9.33336 10.5936 11.4268 8.50011 14 8.50011C16.5732 8.50011 18.6667 10.5936 18.6667 13.1668C18.6667 15.74 16.5732 17.8334 14 17.8334Z" fill="#363636"/>
<path d="M24.2667 7.1001C23.2372 7.1001 22.4 7.9373 22.4 8.96676C22.4 9.99623 23.2372 10.8334 24.2667 10.8334C25.2962 10.8334 26.1334 9.99623 26.1334 8.96676C26.1334 7.9373 25.2962 7.1001 24.2667 7.1001ZM24.2667 9.9001C23.752 9.9001 23.3334 9.4815 23.3334 8.96676C23.3334 8.45203 23.752 8.03343 24.2667 8.03343C24.7814 8.03343 25.2 8.45203 25.2 8.96676C25.2 9.4815 24.7814 9.9001 24.2667 9.9001Z" fill="#363636"/>
</svg>
