<svg width="28" height="28" viewBox="0 0 28 28" fill="none" xmlns="http://www.w3.org/2000/svg">
<g clip-path="url(#clip0)">
<path d="M10.4408 17.8771L10.2415 19.7588C10.2254 19.9107 10.2746 20.0622 10.3767 20.1757C10.4788 20.2892 10.6244 20.354 10.7771 20.354H16.4708C16.6234 20.354 16.7689 20.2891 16.8711 20.1757C16.9732 20.0622 17.0223 19.9107 17.0063 19.7588L16.8071 17.8771H23.8991C25.0029 17.8771 25.9009 16.9791 25.9009 15.8752V2.00193C25.9008 0.898104 25.0028 0.00012207 23.899 0.00012207H2.91795C1.81412 0.00012207 0.916138 0.898104 0.916138 2.00193V15.8752C0.916138 16.9791 1.81412 17.8771 2.91795 17.8771H10.4408ZM15.8722 19.2771H11.3755L11.5237 17.8771H15.7239L15.8722 19.2771ZM2.91795 1.0771H23.899C24.409 1.0771 24.8238 1.49195 24.8238 2.00193V14.2155H1.99311V2.00193C1.99311 1.49195 2.40796 1.0771 2.91795 1.0771ZM1.99311 15.8752V15.2925H24.8238V15.8752C24.8238 16.3852 24.4089 16.8001 23.8989 16.8001H2.91795C2.40796 16.8001 1.99311 16.3852 1.99311 15.8752Z" fill="#363636"/>
<path d="M23.8849 23.972C23.9825 23.8111 23.9892 23.611 23.9024 23.4441L22.8389 21.3979C22.7462 21.2196 22.562 21.1078 22.361 21.1078H4.45739C4.2565 21.1078 4.07227 21.2196 3.97957 21.3979L2.91602 23.4441C2.82929 23.611 2.8359 23.8111 2.93354 23.972C3.03119 24.1328 3.20573 24.2309 3.39384 24.2309H23.4246C23.6127 24.231 23.7872 24.1328 23.8849 23.972ZM4.28062 23.154L4.78436 22.1848H22.034L22.5378 23.154H4.28062Z" fill="#363636"/>
<path d="M24.8243 25.2001H23.9627C22.7158 25.2001 21.7012 26.2146 21.7012 27.4616C21.7012 27.759 21.9423 28.0001 22.2397 28.0001H26.5473C26.8447 28.0001 27.0858 27.759 27.0858 27.4616C27.0859 26.2147 26.0714 25.2001 24.8243 25.2001ZM22.9078 26.9232C23.1042 26.54 23.5034 26.277 23.9627 26.277H24.8243C25.2837 26.277 25.6829 26.54 25.8793 26.9232H22.9078Z" fill="#363636"/>
</g>
<defs>
<clipPath id="clip0">
<rect width="28" height="28" fill="white" transform="translate(0 0.00012207)"/>
</clipPath>
</defs>
</svg>
