<svg width="28" height="29" viewBox="0 0 28 29" fill="none" xmlns="http://www.w3.org/2000/svg">
<g clip-path="url(#clip0)">
<path d="M13.6159 2.19568C12.7591 2.19568 12.0623 2.89465 12.0623 3.75363C12.0623 4.61368 12.7591 5.31329 13.6159 5.31329C14.4734 5.31329 15.1711 4.61368 15.1711 3.75363C15.1711 2.89465 14.4734 2.19568 13.6159 2.19568ZM13.6159 4.49469C13.2105 4.49469 12.8806 4.16229 12.8806 3.75363C12.8806 3.34583 13.2105 3.01428 13.6159 3.01428C14.022 3.01428 14.3525 3.34583 14.3525 3.75363C14.3525 4.16229 14.022 4.49469 13.6159 4.49469Z" fill="#363636"/>
<path d="M11.2513 2.59558H10.9039C10.6779 2.59558 10.4946 2.77887 10.4946 3.00488C10.4946 3.2309 10.6779 3.41418 10.9039 3.41418H11.2513C11.4773 3.41418 11.6606 3.2309 11.6606 3.00488C11.6606 2.77887 11.4773 2.59558 11.2513 2.59558Z" fill="#363636"/>
<path d="M11.2513 4.16772H10.9039C10.6779 4.16772 10.4946 4.35101 10.4946 4.57703C10.4946 4.80304 10.6779 4.98633 10.9039 4.98633H11.2513C11.4773 4.98633 11.6606 4.80304 11.6606 4.57703C11.6606 4.35101 11.4773 4.16772 11.2513 4.16772Z" fill="#363636"/>
<path d="M16.4126 2.59558H16.0668C15.8408 2.59558 15.6575 2.77887 15.6575 3.00488C15.6575 3.2309 15.8408 3.41418 16.0668 3.41418H16.4126C16.6386 3.41418 16.8219 3.2309 16.8219 3.00488C16.8219 2.77887 16.6386 2.59558 16.4126 2.59558Z" fill="#363636"/>
<path d="M16.4126 4.16772H16.0668C15.8408 4.16772 15.6575 4.35101 15.6575 4.57703C15.6575 4.80304 15.8408 4.98633 16.0668 4.98633H16.4126C16.6386 4.98633 16.8219 4.80304 16.8219 4.57703C16.8219 4.35101 16.6386 4.16772 16.4126 4.16772Z" fill="#363636"/>
<path d="M24.6395 0.707397H3.4137C2.73758 0.707397 2.1875 1.25897 2.1875 1.9368V27.478C2.1875 28.1558 2.73758 28.7074 3.4137 28.7074H24.6395C25.3156 28.7074 25.8657 28.1558 25.8657 27.478V1.9368C25.8657 1.25897 25.3156 0.707397 24.6395 0.707397V0.707397ZM8.83289 27.8888H3.4137C3.18896 27.8888 3.0061 27.7044 3.0061 27.478V26.1262H8.83289V27.8888ZM25.0473 27.478C25.0473 27.7044 24.8642 27.8888 24.6395 27.8888H9.65149V26.1262H25.0473V27.478ZM25.0473 6.05737H15.0923C14.8662 6.05737 14.683 6.24066 14.683 6.46667C14.683 6.6929 14.8662 6.87598 15.0923 6.87598H25.0473V25.3076H3.0061V6.87598H13.0336C13.2596 6.87598 13.4429 6.6929 13.4429 6.46667C13.4429 6.24066 13.2598 6.05737 13.0336 6.05737H3.0061V1.9368C3.0061 1.71036 3.18896 1.526 3.4137 1.526H24.6395C24.8642 1.526 25.0473 1.71036 25.0473 1.9368V6.05737Z" fill="#363636"/>
<path d="M23.577 2.29333H18.7771C18.4075 2.29333 18.1069 2.59454 18.1069 2.96454V4.54428C18.1069 4.91449 18.4075 5.2157 18.7771 5.2157H23.577C23.9467 5.2157 24.2473 4.91449 24.2473 4.54428V2.96454C24.2473 2.59454 23.9467 2.29333 23.577 2.29333ZM23.4287 4.39709H18.9253V3.11194H23.4287V4.39709Z" fill="#363636"/>
<path d="M7.35123 12.0514C7.241 12.2488 7.31171 12.4981 7.50909 12.6083C7.70648 12.7185 7.95578 12.6478 8.06601 12.4504C9.27383 10.2867 11.5579 8.94254 14.0265 8.94254C17.7923 8.94254 20.8558 12.0193 20.8558 15.8011C20.8558 19.582 17.7923 22.6582 14.0265 22.6582C10.2601 22.6582 7.19592 19.582 7.19592 15.8011C7.19592 15.2374 7.26407 14.6787 7.39844 14.1408C7.45312 13.9214 7.31982 13.6993 7.10043 13.6444C6.88126 13.5897 6.65909 13.723 6.60419 13.9424C6.4538 14.5452 6.37732 15.1705 6.37732 15.8011C6.37732 20.0334 9.80875 23.4768 14.0267 23.4768C18.2437 23.4768 21.6744 20.0334 21.6744 15.8011C21.6744 11.568 18.2437 8.12415 14.0267 8.12415C11.2616 8.12393 8.70389 9.62891 7.35123 12.0514Z" fill="#363636"/>
<path d="M18.8618 13.8768C18.9716 13.8377 19.0594 13.7538 19.1036 13.6459C19.1476 13.5378 19.1434 13.4163 19.0923 13.3116C18.6349 12.3748 17.9289 11.5832 17.0505 11.0224C16.1475 10.4458 15.102 10.141 14.0267 10.141C10.9167 10.141 8.3866 12.6801 8.3866 15.8011C8.3866 18.9222 10.9167 21.4613 14.0267 21.4613C15.1018 21.4613 16.1473 21.1565 17.0505 20.5793C17.9287 20.0183 18.6347 19.227 19.0923 18.2909C19.1436 18.186 19.1476 18.0645 19.1036 17.9566C19.0596 17.8487 18.9716 17.7646 18.8618 17.7255C18.6753 17.6592 18.5501 17.4815 18.5501 17.2833V14.3175C18.5499 14.1201 18.6753 13.9431 18.8618 13.8768ZM18.1806 18.2604C17.3152 19.7389 15.7553 20.6427 14.0267 20.6427C11.3679 20.6427 9.20499 18.4708 9.20499 15.8011C9.20499 13.1315 11.3679 10.9596 14.0267 10.9596C15.7562 10.9596 17.3158 11.8632 18.1806 13.3417C17.9016 13.5816 17.7315 13.9358 17.7315 14.3175V17.2833C17.7315 17.6654 17.9016 18.0201 18.1806 18.2604Z" fill="#363636"/>
<path d="M7.86304 2.6283H5.71014C5.12439 2.6283 4.64758 3.10596 4.64758 3.69321C4.64758 4.28067 5.12439 4.75833 5.71014 4.75833H7.86304C8.44879 4.75833 8.9256 4.28067 8.9256 3.69321C8.9256 3.10596 8.44901 2.6283 7.86304 2.6283ZM7.86304 3.93973H5.71014C5.57556 3.93973 5.46619 3.82928 5.46619 3.69321C5.46619 3.55734 5.57556 3.44669 5.71014 3.44669H7.86304C7.99762 3.44669 8.10699 3.55734 8.10699 3.69321C8.10699 3.82928 7.99762 3.93973 7.86304 3.93973Z" fill="#363636"/>
</g>
<defs>
<clipPath id="clip0">
<rect width="28" height="28" fill="white" transform="translate(0 0.707397)"/>
</clipPath>
</defs>
</svg>
