<svg width="28" height="29" viewBox="0 0 28 29" fill="none" xmlns="http://www.w3.org/2000/svg">
<path d="M26.3097 2.23523H1.69034C0.758298 2.23523 0 2.99353 0 3.92557V20.9235C0 21.8556 0.758298 22.6139 1.69034 22.6139H10.1264V23.8438C10.1264 24.9713 9.20912 25.8886 8.08162 25.8886H6.22241C5.86596 25.8886 5.57693 26.1776 5.57693 26.5341C5.57693 26.8906 5.86596 27.1796 6.22241 27.1796H21.7775C22.134 27.1796 22.423 26.8906 22.423 26.5341C22.423 26.1776 22.134 25.8886 21.7775 25.8886H19.9183C18.7908 25.8886 17.8734 24.9713 17.8734 23.8438V22.6139H26.3096C27.2416 22.6139 27.9999 21.8556 27.9999 20.9236V3.92557C28.0001 2.99353 27.2418 2.23523 26.3097 2.23523ZM10.7144 25.8887C11.1544 25.3235 11.4175 24.6141 11.4175 23.8439V22.614H16.5826V23.8439C16.5826 24.6141 16.8457 25.3235 17.2857 25.8887H10.7144ZM26.7091 20.9236C26.7091 21.1438 26.5299 21.323 26.3097 21.323H1.69034C1.47011 21.323 1.2909 21.1439 1.2909 20.9236V17.5311H26.7091V20.9236ZM26.7091 16.2401H1.29096V3.92557C1.29096 3.70534 1.47011 3.52613 1.69039 3.52613H26.3097C26.5299 3.52613 26.7092 3.70529 26.7092 3.92557V16.2401H26.7091Z" fill="#363636"/>
<path d="M13.9996 20.1239C14.3843 20.1239 14.6962 19.8121 14.6962 19.4273C14.6962 19.0426 14.3843 18.7307 13.9996 18.7307C13.6149 18.7307 13.303 19.0426 13.303 19.4273C13.303 19.8121 13.6149 20.1239 13.9996 20.1239Z" fill="#363636"/>
<path d="M15.1073 6.68208C14.8551 6.43003 14.4466 6.43003 14.1944 6.68208L9.63264 11.2438C9.38059 11.4958 9.38059 11.9046 9.63264 12.1567C9.75875 12.2827 9.92386 12.3457 10.0891 12.3457C10.2544 12.3457 10.4195 12.2827 10.5455 12.1567L15.1073 7.59498C15.3593 7.34293 15.3593 6.93419 15.1073 6.68208Z" fill="#363636"/>
<path d="M17.811 9.32565C17.559 9.07359 17.1504 9.07359 16.8981 9.32559L15.0809 11.1428C14.8288 11.3949 14.8288 11.8036 15.0809 12.0557C15.2069 12.1817 15.3721 12.2447 15.5373 12.2447C15.7025 12.2447 15.8677 12.1817 15.9937 12.0557L17.811 10.2385C18.063 9.98644 18.063 9.5777 17.811 9.32565Z" fill="#363636"/>
</svg>
