<svg width="22" height="18" viewBox="0 0 22 18" fill="none" xmlns="http://www.w3.org/2000/svg">
<path d="M20.6626 7.99537H0.818285C0.584104 7.99537 0.394043 7.80531 0.394043 7.57112V1.84215C0.394043 0.87573 1.17974 0.0908813 2.14447 0.0908813H19.3348C20.3012 0.0908813 21.086 0.876578 21.086 1.84215V7.57112C21.0869 7.80615 20.8968 7.99537 20.6626 7.99537ZM1.24253 7.14688H20.2384V1.84215C20.2384 1.34409 19.8328 0.939366 19.3356 0.939366H2.14532C1.6481 0.939366 1.24338 1.34494 1.24338 1.84215V7.14688H1.24253Z" fill="#363636"/>
<path d="M19.3347 14.958H2.1452C1.17962 14.958 0.394775 14.1723 0.394775 13.2067V7.47777C0.394775 7.24359 0.584836 7.05353 0.819018 7.05353H20.6634C20.8976 7.05353 21.0876 7.24359 21.0876 7.47777V13.2067C21.0868 14.1732 20.3011 14.958 19.3347 14.958ZM1.24241 7.90201V13.2067C1.24241 13.7048 1.64799 14.1095 2.14435 14.1095H19.3347C19.8327 14.1095 20.2374 13.704 20.2374 13.2067V7.90201H1.24241Z" fill="#363636"/>
<path d="M3.55374 17.0894C3.50028 17.0894 3.44428 17.0793 3.39168 17.0572C3.17531 16.9681 3.07265 16.7195 3.16174 16.5031L4.04416 14.3717C4.1341 14.1554 4.38186 14.0502 4.59822 14.1418C4.81459 14.2309 4.91725 14.4795 4.82816 14.6959L3.94574 16.8273C3.87786 16.991 3.72004 17.0894 3.55374 17.0894Z" fill="#363636"/>
<path d="M17.9263 17.0895C17.76 17.0895 17.6022 16.991 17.5343 16.8273L16.6527 14.6959C16.5636 14.4787 16.6663 14.2309 16.8826 14.1418C17.0999 14.051 17.3476 14.1563 17.4367 14.3718L18.3183 16.5032C18.4074 16.7204 18.3047 16.9681 18.0883 17.0572C18.0357 17.0793 17.9806 17.0895 17.9263 17.0895Z" fill="#363636"/>
<path d="M11.7323 3.58579H9.74773C9.51355 3.58579 9.32349 3.39573 9.32349 3.16155C9.32349 2.92737 9.51355 2.7373 9.74773 2.7373H11.7323C11.9665 2.7373 12.1566 2.92737 12.1566 3.16155C12.1566 3.39573 11.9674 3.58579 11.7323 3.58579Z" fill="#363636"/>
<path d="M11.7323 10.5484H9.74773C9.51355 10.5484 9.32349 10.3584 9.32349 10.1242C9.32349 9.89001 9.51355 9.69995 9.74773 9.69995H11.7323C11.9665 9.69995 12.1566 9.89001 12.1566 10.1242C12.1566 10.3584 11.9674 10.5484 11.7323 10.5484Z" fill="#363636"/>
</svg>
