<svg width="28" height="18" viewBox="0 0 28 18" fill="none" xmlns="http://www.w3.org/2000/svg">
<path d="M27.5758 3.79711H0.424242C0.190061 3.79711 0 3.60705 0 3.37287V0.461718C0 0.227536 0.190061 0.0374756 0.424242 0.0374756H27.5758C27.8099 0.0374756 28 0.227536 28 0.461718V3.37372C28 3.6079 27.8099 3.79711 27.5758 3.79711ZM0.848485 2.94863H27.1515V0.88596H0.848485V2.94863Z" fill="#363636"/>
<path d="M2.66083 17.9625H1.41526C1.29053 17.9625 1.17089 17.9074 1.09029 17.8107C1.00968 17.7139 0.975741 17.5875 0.997802 17.4645L3.48895 3.29903C3.52459 3.09709 3.70023 2.94861 3.90641 2.94861H6.81332C6.94653 2.94861 7.07295 3.0114 7.15271 3.11831C7.23247 3.22521 7.25792 3.36352 7.21974 3.49164L3.06726 17.6579C3.01465 17.8387 2.84835 17.9625 2.66083 17.9625ZM1.92095 17.1141H2.3435L6.24738 3.79709H4.26277L1.92095 17.1141Z" fill="#363636"/>
<path d="M25.8543 17.9626H24.6078C24.4195 17.9626 24.254 17.8387 24.2014 17.6579L20.0489 3.49249C20.0108 3.36437 20.0362 3.22607 20.116 3.11916C20.1966 3.01225 20.3221 2.94946 20.4554 2.94946H23.3623C23.5685 2.94946 23.7441 3.09795 23.7797 3.29989L26.2717 17.4653C26.2929 17.5892 26.259 17.7156 26.1792 17.8115C26.0995 17.9074 25.979 17.9626 25.8543 17.9626ZM24.9252 17.1141H25.3486L23.0059 3.7971H21.0221L24.9252 17.1141Z" fill="#363636"/>
<path d="M21.2707 6.57847H5.99797C5.76379 6.57847 5.57373 6.3884 5.57373 6.15422C5.57373 5.92004 5.76379 5.72998 5.99797 5.72998H21.2707C21.5049 5.72998 21.6949 5.92004 21.6949 6.15422C21.6949 6.3884 21.5057 6.57847 21.2707 6.57847Z" fill="#363636"/>
</svg>
