<svg width="28" height="28" viewBox="0 0 28 28" fill="none" xmlns="http://www.w3.org/2000/svg">
<g clip-path="url(#clip0)">
<path d="M25.1765 17.446V15.6055C25.1757 15.5514 25.1654 15.4978 25.146 15.4474C25.1409 15.4331 25.1332 15.4205 25.1268 15.4068C25.1084 15.3682 25.0847 15.3321 25.0563 15.3C25.0501 15.2928 25.0477 15.2836 25.0411 15.2768C24.9896 15.2242 23.7421 14.0029 20.7634 14.0029C20.5461 14.0029 20.3407 14.011 20.1416 14.023C20.3625 12.4674 20.6331 10.5088 20.8112 9.02887C20.9342 8.01006 20.9966 7.32892 20.9966 7.00406C20.9966 5.92458 20.3189 5.29385 19.7742 4.78679C19.5004 4.56381 19.2659 4.29639 19.0809 3.99566C18.7911 3.16331 18.6497 2.28631 18.6636 1.40483C18.6636 0.60708 17.6608 0.00518799 16.3308 0.00518799C15.0005 0.00518799 13.9977 0.60708 13.9977 1.40483C14.0116 2.28631 13.8702 3.16331 13.5804 3.99566C13.3952 4.29639 13.1609 4.56381 12.8873 4.78679C12.3426 5.29385 11.6647 5.92458 11.6647 7.00406C11.6647 7.26399 11.7055 7.75631 11.7843 8.4618C11.739 8.43189 11.6938 8.40199 11.6498 8.37316C11.0803 8.00045 10.7315 7.7576 10.7315 7.47053C10.7516 6.72959 11.034 6.01984 11.528 5.4675C11.5333 5.46216 11.5353 5.45511 11.5404 5.44956C11.5571 5.43311 11.5724 5.41538 11.5863 5.39637C11.5938 5.38527 11.5947 5.37245 11.6011 5.36071C11.6282 5.30816 11.647 5.25135 11.6564 5.19282C11.6592 5.16292 11.6592 5.13302 11.6559 5.10333C11.6549 5.07535 11.6513 5.04737 11.6451 5.02003C11.6369 4.99419 11.6267 4.96898 11.6141 4.94485C11.6021 4.91559 11.5872 4.88782 11.5692 4.86198C11.565 4.85621 11.5639 4.84937 11.5596 4.84403C11.5436 4.82844 11.5267 4.81413 11.5088 4.8011C11.493 4.78252 11.4757 4.76501 11.4571 4.7492C11.3949 4.70798 9.90623 3.73786 6.99887 3.73786C4.0915 3.73786 2.60279 4.70798 2.54063 4.74941C2.52568 4.76266 2.51159 4.77675 2.49834 4.79192C2.47699 4.80666 2.45712 4.82353 2.43875 4.8419C2.4332 4.84852 2.4317 4.85685 2.42679 4.86369C2.41163 4.88611 2.39881 4.90982 2.38792 4.9346C2.37275 4.96279 2.36079 4.99227 2.35182 5.02281C2.3467 5.04609 2.34371 5.06958 2.34242 5.09329C2.33367 5.18727 2.35332 5.28189 2.39924 5.36434C2.40458 5.37373 2.40501 5.38441 2.4112 5.3936C2.41825 5.40449 2.42936 5.40983 2.43704 5.41987C2.44687 5.43653 2.45776 5.45233 2.46972 5.4675C2.9676 6.0177 3.25039 6.72874 3.26619 7.47053C3.26619 7.7576 2.9174 8.00045 2.34798 8.37316C1.43254 8.9727 0.206754 9.77878 0.0252035 11.6534L0.0239219 11.6641C0.00961147 11.8151 0 11.9711 0 12.1364C0 12.5999 0.0224268 13.0749 0.0568145 13.5561C0.0568145 13.5623 0.0585232 13.5683 0.0585232 13.5745C0.273393 16.5393 1.08652 19.8055 1.88022 22.9809C1.89325 23.0328 1.91503 23.0821 1.94472 23.1266C2.05429 23.2915 3.128 24.7345 6.99887 24.7345C10.8697 24.7345 11.9434 23.2915 12.053 23.127C12.0827 23.0824 12.1045 23.033 12.1175 22.9811C12.5212 21.3662 12.9262 19.7292 13.2596 18.1186C13.5281 18.3471 13.8279 18.5363 14.15 18.6801C13.7237 19.2719 13.5058 19.9887 13.531 20.7179C13.531 23.7152 16.9057 27.1499 17.0493 27.2943C17.1003 27.346 17.1629 27.3851 17.2319 27.4082C18.3748 27.7732 19.5641 27.9725 20.7634 28.0007C21.9627 27.9725 23.1519 27.773 24.2946 27.4079C24.3636 27.3849 24.4262 27.3458 24.4775 27.2941C24.621 27.1497 27.9955 23.7148 27.9955 20.7175C28.085 19.0477 26.8414 17.6045 25.1765 17.446ZM17.2832 16.4729C18.368 16.9921 19.5613 17.2441 20.7634 17.2078C21.9654 17.2441 23.1585 16.9921 24.2434 16.4729V17.6568C23.8884 17.9142 22.8083 18.547 20.7634 18.547C18.7191 18.547 17.6383 17.9135 17.2832 17.6564V16.4729ZM23.8865 15.6057C22.9168 16.0837 21.8437 16.3135 20.7634 16.2746C19.6828 16.3135 18.6098 16.0833 17.6401 15.605C18.6098 15.127 19.6828 14.8972 20.7634 14.9361C21.8437 14.8972 22.917 15.1275 23.8865 15.6057ZM0.940216 12.3408C2.91228 12.8835 4.9544 13.1291 6.99887 13.0698C9.04334 13.1291 11.0855 12.8835 13.0575 12.3408C13.0541 12.6355 13.0451 12.9335 13.027 13.237C12.3343 13.4826 10.4609 14.0029 6.99887 14.0029C3.53681 14.0029 1.66343 13.4826 0.970546 13.237C0.952605 12.9337 0.943634 12.6357 0.940216 12.3408ZM12.7472 8.66535C12.7045 8.29883 12.6722 8.0013 12.6506 7.77255C13.8266 8.21297 15.0751 8.42698 16.3308 8.4037C17.5862 8.42698 18.8351 8.21297 20.0111 7.77255C19.9893 8.00151 19.9571 8.29926 19.9143 8.66535C18.781 9.14122 17.5593 9.37019 16.3308 9.33687C15.102 9.36997 13.8805 9.14122 12.7472 8.66535ZM16.3308 0.938356C17.234 0.938356 17.7304 1.28864 17.7304 1.40483C17.7304 1.52103 17.234 1.87152 16.3308 1.87152C15.4273 1.87152 14.9309 1.52103 14.9309 1.40483C14.9309 1.28864 15.4273 0.938356 16.3308 0.938356ZM13.5229 5.47028C13.8813 5.17424 14.1836 4.81627 14.4151 4.41323C14.671 3.80621 14.8245 3.16117 14.8692 2.50396C15.3286 2.70986 15.8273 2.81259 16.3308 2.80469C16.834 2.81259 17.3329 2.70986 17.7921 2.50396C17.837 3.16117 17.9903 3.80621 18.2462 4.41323C18.4778 4.81627 18.78 5.17424 19.1384 5.47028C19.57 5.7834 19.8864 6.23001 20.0384 6.74134C18.8729 7.25929 17.6057 7.50855 16.3308 7.47053C15.0556 7.50876 13.7886 7.25951 12.6231 6.74113C12.7749 6.23001 13.0913 5.7834 13.5229 5.47028ZM10.0619 5.13751C9.07388 5.46152 8.03862 5.61915 6.99887 5.6042C5.95912 5.61915 4.92385 5.46131 3.93579 5.13751C4.92385 4.81371 5.95912 4.65608 6.99887 4.67103C8.03862 4.65608 9.07388 4.81392 10.0619 5.13751ZM2.8591 9.15425C3.51802 8.7228 4.19936 8.27662 4.19936 7.47053C4.19808 7.00982 4.11179 6.55317 3.94477 6.12364C4.93752 6.40878 5.96617 6.54804 6.99887 6.53736C8.03157 6.54804 9.06021 6.40878 10.053 6.12364C9.88594 6.55317 9.79965 7.00982 9.79837 7.47053C9.79837 8.27662 10.4797 8.7228 11.1386 9.15425C11.8945 9.64913 12.7267 10.2077 12.9802 11.3841C12.2771 11.6282 10.4069 12.1364 6.99887 12.1364C3.59085 12.1364 1.72067 11.6282 1.01754 11.3841C1.27106 10.2077 2.10321 9.64913 2.8591 9.15425ZM11.2377 22.6522C11.022 22.8799 9.96582 23.8013 6.99887 23.8013C4.01653 23.8013 2.96504 22.8703 2.76042 22.6539C2.00261 19.8935 1.43382 17.0846 1.05769 14.2466C2.99515 14.7586 4.99583 14.9906 6.99887 14.9361C9.0019 14.9906 11.0026 14.7586 12.94 14.2466C12.5639 17.0839 11.9953 19.8922 11.2377 22.6522ZM13.6972 15.6903C13.8047 14.9722 13.8892 14.2646 13.9392 13.5745C13.9392 13.5683 13.9409 13.5623 13.9409 13.5561C13.9753 13.0749 13.9977 12.5999 13.9977 12.1364C13.9977 11.9711 13.9881 11.8151 13.9738 11.6641L13.9725 11.6534C13.9221 11.0172 13.7083 10.4048 13.3514 9.87554C14.3209 10.1474 15.3239 10.2803 16.3308 10.27C17.5051 10.289 18.6736 10.1037 19.7845 9.72282C19.604 11.1419 19.3725 12.8062 19.1837 14.1315C17.3368 14.4457 16.5268 15.2349 16.4856 15.2768C16.4788 15.2836 16.4766 15.2928 16.4702 15.3003C16.442 15.3323 16.4183 15.3682 16.4 15.4071C16.3933 15.4207 16.3859 15.4333 16.3805 15.4476C16.3613 15.498 16.3508 15.5514 16.35 15.6055V17.446C15.8391 17.5188 15.3491 17.6991 14.9127 17.9748C14.574 17.8644 14.2547 17.7018 13.9663 17.493C13.9215 17.1961 13.8228 16.5389 13.6972 15.6903ZM23.8922 26.5566C22.8772 26.868 21.8247 27.0399 20.7634 27.0675C19.702 27.0399 18.6493 26.868 17.6343 26.5566C17.1411 26.0363 14.4644 23.1018 14.4644 20.7179C14.4153 20.0092 14.7113 19.3204 15.2594 18.8687C15.2645 18.865 15.2692 18.8612 15.2741 18.8571C15.6789 18.5639 16.1571 18.389 16.6556 18.352C17.0881 18.688 18.3643 19.4804 20.7634 19.4804C23.1624 19.4804 24.4382 18.688 24.8711 18.352C25.4802 18.3606 26.0595 18.6186 26.4734 19.0656C26.8876 19.5126 27.1003 20.1096 27.0623 20.7179C27.0623 23.1018 24.3856 26.0363 23.8922 26.5566Z" fill="#363636"/>
</g>
<defs>
<clipPath id="clip0">
<rect width="28" height="28" fill="white"/>
</clipPath>
</defs>
</svg>
