<svg width="28" height="12" viewBox="0 0 28 12" fill="none" xmlns="http://www.w3.org/2000/svg">
<path d="M10.7704 2.41134C8.61666 1.95463 6.33813 1.89115 3.99817 2.22266C3.49696 2.29369 3.05752 2.55817 2.76073 2.96755C2.4653 3.37498 2.35095 3.87206 2.43872 4.36715C2.47868 4.59244 2.51812 4.80305 2.5559 4.99303C2.72672 5.85163 2.91205 6.62564 3.10674 7.2936C3.40389 8.313 4.22435 9.07576 5.2487 9.28431L5.31926 9.29851C5.70594 9.37467 6.10034 9.41328 6.49145 9.41328C9.09984 9.41328 11.4176 7.7443 12.2588 5.26023L12.3099 5.10915C12.4997 4.54811 12.4403 3.9313 12.1472 3.41677C11.8535 2.901 11.3516 2.53454 10.7704 2.41134ZM11.7506 4.92347L11.7006 5.07107C10.9405 7.31565 8.84708 8.82377 6.49151 8.82377C6.13854 8.82377 5.78251 8.78887 5.43438 8.72032L5.36565 8.70652C4.5571 8.54195 3.90834 7.93729 3.67268 7.12862C3.48276 6.47704 3.30156 5.71982 3.13404 4.87797C3.09702 4.69199 3.05835 4.48551 3.01915 4.26429C2.95956 3.928 3.03725 3.59037 3.23796 3.31356C3.44002 3.03481 3.7394 2.85473 4.08082 2.80633C6.35234 2.48455 8.5619 2.54568 10.6481 2.988C11.0648 3.07636 11.4245 3.33902 11.6351 3.70855C11.845 4.0769 11.8875 4.51858 11.7506 4.92347Z" fill="#363636"/>
<path d="M10.5837 3.28822C9.40454 3.03817 8.16563 2.91138 6.90143 2.91138C6.56632 2.91138 6.22338 2.92057 5.88214 2.93867C5.71963 2.94728 5.59484 3.08603 5.60345 3.2486C5.61205 3.41118 5.75122 3.53567 5.91338 3.5273C6.24424 3.50973 6.57664 3.50083 6.90143 3.50083C8.1246 3.50083 9.32231 3.62332 10.4614 3.86482C10.6305 3.90066 10.7705 4.00275 10.8557 4.1523C10.9402 4.30066 10.9566 4.47149 10.9019 4.63329C10.8498 4.78749 10.9325 4.95478 11.0867 5.00689C11.118 5.0175 11.1499 5.02251 11.1812 5.02251C11.3041 5.02251 11.4188 4.94499 11.4603 4.82209C11.5697 4.4986 11.5369 4.15713 11.3679 3.86046C11.1981 3.56267 10.9196 3.35942 10.5837 3.28822Z" fill="#363636"/>
<path d="M25.4437 4.99317C25.4814 4.80337 25.5209 4.59282 25.5608 4.36729C25.6486 3.87221 25.5343 3.37512 25.2389 2.96775C24.9421 2.55837 24.5026 2.29383 24.0014 2.22286C21.6614 1.89141 19.3829 1.95489 17.2292 2.41154C16.648 2.53474 16.1461 2.9012 15.8523 3.41691C15.5592 3.93145 15.4999 4.54825 15.6895 5.10918L15.7407 5.26037C16.5819 7.74445 18.8997 9.41343 21.5081 9.41343C21.8992 9.41343 22.2935 9.37482 22.6813 9.29843L22.7515 9.28434C23.7751 9.07597 24.5956 8.31321 24.8927 7.29381C25.0874 6.62625 25.2728 5.85224 25.4437 4.99317ZM24.3269 7.12882C24.0912 7.9375 23.4425 8.5421 22.6347 8.70656L22.5663 8.72029C22.2171 8.78908 21.8611 8.82397 21.5081 8.82397C19.1525 8.82397 17.0592 7.31592 16.299 5.07128L16.248 4.92043C16.1121 4.51872 16.1546 4.07704 16.3646 3.70863C16.5751 3.33905 16.9349 3.07645 17.3516 2.98809C18.5605 2.73179 19.8106 2.60347 21.0903 2.60347C22.0191 2.60347 22.9636 2.67108 23.9188 2.80642C24.2603 2.85481 24.5597 3.03495 24.7617 3.31364C24.9624 3.59045 25.0402 3.92809 24.9806 4.26425C24.9413 4.48571 24.9026 4.69226 24.8656 4.87799C24.698 5.72044 24.5168 6.47765 24.3269 7.12882Z" fill="#363636"/>
<path d="M23.876 3.11014C22.9449 2.97828 22.0101 2.91138 21.0976 2.91138C20.7441 2.91138 20.3879 2.92146 20.0387 2.94132C19.8762 2.95058 19.752 3.08981 19.7612 3.25232C19.7705 3.41483 19.9095 3.53944 20.0722 3.52983C20.4102 3.51062 20.7552 3.50083 21.0976 3.50083C21.9825 3.50083 22.8894 3.56573 23.7933 3.69376C23.8919 3.70773 23.9782 3.75954 24.0363 3.83971C24.0939 3.91905 24.1153 4.01177 24.0983 4.10785C24.0699 4.26812 24.1768 4.42109 24.3371 4.4495C24.3545 4.45256 24.3717 4.4541 24.3888 4.4541C24.5291 4.4541 24.6534 4.35359 24.6787 4.21077C24.7236 3.95719 24.665 3.70254 24.5136 3.49376C24.3608 3.28291 24.1344 3.14669 23.876 3.11014Z" fill="#363636"/>
<path d="M27.9312 10.5932L25.6441 7.86481C25.685 7.7603 25.7219 7.65361 25.7538 7.54444C26.2088 5.98357 26.5015 4.24321 26.6013 3.60288H27.1841C27.3469 3.60288 27.4788 3.4709 27.4788 3.30816V1.87425C27.4788 1.74363 27.3928 1.62856 27.2675 1.59155C21.7933 -0.0233206 17.573 0.852373 15.5447 1.51822C14.5342 1.84991 13.4659 1.84996 12.4553 1.51822C10.427 0.852432 6.20689 -0.0233795 0.732451 1.59155C0.607133 1.62851 0.521132 1.74363 0.521132 1.87425V3.30816C0.521132 3.4709 0.653111 3.60288 0.815859 3.60288H1.39865C1.49845 4.24321 1.79123 5.98357 2.24617 7.5445C2.278 7.65367 2.3149 7.76036 2.35581 7.86487L0.0688441 10.5932C0.0134944 10.6592 -0.0102017 10.7462 0.00406312 10.8313C0.0183869 10.9163 0.0691388 10.9909 0.143115 11.0352C0.46814 11.2302 0.827 11.3251 1.18268 11.3251C1.71672 11.3251 2.2434 11.1109 2.63662 10.6995L3.70831 9.57812C4.11898 9.86229 4.58954 10.0658 5.09818 10.1682L5.14587 10.1777C5.59262 10.2658 6.03901 10.3083 6.48081 10.3082C9.05383 10.3081 11.4555 8.86494 12.6672 6.57125L15.1636 6.22548C16.3094 8.71881 18.8194 10.3083 21.5192 10.3082C21.9608 10.3082 22.4076 10.2657 22.8541 10.1777L22.8956 10.1695C23.4066 10.0668 23.8791 9.86271 24.2913 9.57753L25.3634 10.6994C25.7567 11.1109 26.2833 11.3251 26.8174 11.3251C27.173 11.3251 27.5319 11.2301 27.8569 11.0351C27.9309 10.9907 27.9817 10.9162 27.9959 10.8312C28.0102 10.7462 27.9865 10.6592 27.9312 10.5932ZM2.21045 10.2923C1.83072 10.6896 1.27522 10.8269 0.770412 10.6738L2.64075 8.44253C2.81087 8.72353 3.01605 8.97917 3.25054 9.20393L2.21045 10.2923ZM12.9619 5.93541C13.0135 5.80809 13.0629 5.67929 13.1075 5.54773C13.2588 5.10092 13.3924 4.70422 13.4925 4.40578C13.5657 4.18762 13.7697 4.04102 13.9999 4.04102C14.2302 4.04102 14.4341 4.18762 14.5073 4.40578C14.6075 4.70416 14.7411 5.10086 14.8924 5.54767C14.9055 5.58628 14.9201 5.624 14.9338 5.66226L12.9619 5.93541ZM22.7798 9.59156L22.7402 9.5994C19.6121 10.216 16.4784 8.39272 15.4507 5.35863C15.2996 4.91241 15.1663 4.51618 15.0663 4.21821C14.9123 3.75968 14.4838 3.45163 14 3.45163C13.5162 3.45163 13.0876 3.75974 12.9338 4.21821C12.8338 4.51618 12.7004 4.91241 12.5492 5.35863C11.5216 8.39278 8.38775 10.2159 5.25975 9.5994L5.2146 9.59038C4.06257 9.35849 3.14202 8.51138 2.8121 7.37957C2.25678 5.47446 1.94726 3.28917 1.94419 3.26731C1.9238 3.12177 1.7993 3.01343 1.65229 3.01343H1.11059V2.09565C6.32837 0.609753 10.3344 1.44236 12.2714 2.07826C13.4023 2.44956 14.5978 2.44944 15.7285 2.07826C17.6655 1.44247 21.6718 0.609871 26.8894 2.09565V3.01343H26.3476C26.2007 3.01343 26.0761 3.12171 26.0557 3.26731C26.0527 3.28917 25.7436 5.47298 25.188 7.37951C24.8578 8.51197 23.9349 9.3596 22.7798 9.59156ZM25.7895 10.2923L24.749 9.20352C24.9836 8.97876 25.1889 8.72323 25.3591 8.44236L27.2296 10.6739C26.7248 10.827 26.1692 10.6896 25.7895 10.2923Z" fill="#363636"/>
</svg>
