<svg width="28" height="26" viewBox="0 0 28 26" fill="none" xmlns="http://www.w3.org/2000/svg">
<path d="M27.8489 7.10527C27.8424 7.09847 27.8358 7.09181 27.829 7.08535L22.049 1.94824C21.9963 1.90017 21.9348 1.86288 21.8677 1.83836L17.6866 0.343926C17.4014 0.24036 17.0862 0.387674 16.9827 0.672893C16.964 0.724333 16.9531 0.778245 16.9504 0.832913C16.9504 0.953786 16.7691 3.73936 13.9835 3.78332C11.1814 3.73936 11.0056 0.953786 11.0001 0.832913C10.9839 0.529906 10.7252 0.297431 10.4221 0.313639C10.3701 0.316455 10.3186 0.326619 10.2694 0.343926L6.09379 1.85484C6.02676 1.87936 5.96522 1.91665 5.91248 1.96473L0.171001 7.08535C-0.0489744 7.29434 -0.0579026 7.64213 0.151084 7.8621C0.15754 7.8689 0.164202 7.87556 0.171001 7.88202L4.74221 12.5027V25.1394C4.74221 25.4428 4.98821 25.6888 5.29163 25.6888H22.7084C23.0118 25.6888 23.2578 25.4428 23.2578 25.1394V12.5027L27.829 7.88202C28.049 7.67303 28.0579 7.32531 27.8489 7.10527ZM23.2413 10.9368V8.38749C23.2413 8.08407 22.9953 7.83806 22.6919 7.83806C22.3885 7.83806 22.1424 8.08407 22.1424 8.38749V24.5625H5.81908V8.38749C5.81908 8.08407 5.57307 7.83806 5.26965 7.83806C4.96623 7.83806 4.72023 8.08407 4.72023 8.38749V10.9423L1.34127 7.5194L6.57179 2.83831L10.0112 1.59661C10.4373 3.79197 12.5624 5.22631 14.7577 4.80023C16.379 4.48555 17.6467 3.21789 17.9613 1.59661L21.4007 2.83831L26.6148 7.5194L23.2413 10.9368Z" fill="#363636"/>
</svg>