<svg width="20" height="28" viewBox="0 0 20 28" fill="none" xmlns="http://www.w3.org/2000/svg">
<path d="M9.99957 3.5636C9.71842 3.5636 9.49048 3.79154 9.49048 4.07268V9.1636C9.49048 9.44475 9.71842 9.67268 9.99957 9.67268C10.2807 9.67268 10.5087 9.44475 10.5087 9.1636V4.07268C10.5087 3.79154 10.2807 3.5636 9.99957 3.5636Z" fill="#363636"/>
<path d="M12.0362 6.10898C12.5986 6.10898 13.0544 5.65312 13.0544 5.0908C13.0544 4.52848 12.5986 4.07263 12.0362 4.07263C11.4739 4.07263 11.0181 4.52848 11.0181 5.0908C11.0181 5.65312 11.4739 6.10898 12.0362 6.10898Z" fill="#363636"/>
<path d="M18.1459 0.489891C18.1356 0.216398 17.9108 0 17.6371 0H2.36445C2.09074 0 1.86603 0.216398 1.85574 0.489891L0.837518 27.4718C0.832323 27.61 0.883511 27.7443 0.979596 27.844C1.07557 27.9437 1.20792 28 1.34628 28H7.96445C8.22646 28 8.4457 27.8012 8.47118 27.5404L9.66747 15.2779C9.78155 14.108 9.90011 13.3585 10.0008 12.8809C10.1014 13.3585 10.2199 14.1079 10.334 15.2779L11.5304 27.5404C11.5559 27.8012 11.7751 28 12.0371 28H18.6553C18.7936 28 18.926 27.9437 19.022 27.844C19.1181 27.7443 19.1693 27.61 19.1641 27.4718L18.1459 0.489891ZM14.5826 1.01817H17.147L17.1854 2.03634H14.5826V1.01817ZM10.5099 1.01817H13.5644V2.03634H10.5099V1.01817ZM5.92805 1.01817H9.4917V2.03634H5.92805V1.01817ZM2.85461 1.01817H4.90988V2.03634H2.81622L2.85461 1.01817ZM12.499 26.9818L11.3475 15.179C11.2318 13.9931 11.0955 13.0695 10.9428 12.434C10.835 11.986 10.6344 11.152 10.0008 11.152C9.36718 11.152 9.16653 11.9859 9.0588 12.4338C8.90589 13.0693 8.76983 13.9929 8.654 15.1791L7.50261 26.9819H1.87483L2.56564 8.67579C2.60354 8.67737 2.64341 8.67858 2.68705 8.67858C3.09896 8.67858 3.7522 8.59283 4.37788 8.15008C5.20339 7.56612 5.72319 6.56102 5.92291 5.16294C5.96267 4.88458 5.76929 4.62667 5.49088 4.58691C5.21312 4.54727 4.95467 4.74059 4.91491 5.01889C4.75757 6.12052 4.38346 6.89117 3.80289 7.30948C3.33351 7.64777 2.84116 7.67233 2.60392 7.66008L2.77772 3.05457H4.90982H5.92799H9.49165H10.5098H13.5644H14.5826H17.2238L17.3976 7.66002C17.1605 7.67238 16.6681 7.64799 16.1986 7.30953C15.618 6.89123 15.2439 6.12057 15.0866 5.01895C15.0468 4.74059 14.7885 4.54754 14.5106 4.58697C14.2322 4.62673 14.0388 4.88463 14.0786 5.16299C14.2783 6.56108 14.7981 7.56613 15.6236 8.15013C16.2494 8.59294 16.9025 8.67863 17.3144 8.67863C17.3581 8.67863 17.3979 8.67743 17.4358 8.67584L18.1266 26.9819H12.499V26.9818Z" fill="#363636"/>
</svg>
