<svg width="28" height="29" viewBox="0 0 28 29" fill="none" xmlns="http://www.w3.org/2000/svg">
<g clip-path="url(#clip0)">
<path d="M16.267 13.2735C16.1712 13.2735 16.0756 13.2353 16.0049 13.1597C15.8694 13.015 15.8769 12.7878 16.0216 12.6522L19.6815 9.22594C19.8263 9.09042 20.0535 9.09781 20.1891 9.24267C20.3246 9.38746 20.317 9.61469 20.1723 9.75021L16.5124 13.1765C16.4432 13.2413 16.355 13.2735 16.267 13.2735Z" fill="#363636"/>
<path d="M26.9869 16.8149C25.0952 8.03547 22.5104 4.42231 22.4013 4.27278L22.401 4.27292C22.3628 4.22057 22.3106 4.17848 22.2487 4.15277L18.3377 2.53126L18.2775 2.26475C18.2604 2.18912 18.2192 2.12104 18.1603 2.07069L16.1656 0.367888L16.1644 0.369037C16.1017 0.31546 16.0214 0.281921 15.9325 0.281921H12.0655C11.9766 0.281921 11.8962 0.31546 11.8335 0.369037L11.8323 0.367888L9.83756 2.07069C9.77867 2.12104 9.73752 2.18912 9.72043 2.26475L9.6601 2.53184L5.75039 4.15277C5.68841 4.17848 5.6362 4.22064 5.59807 4.27292L5.59792 4.27278C5.48883 4.42231 2.90403 8.03547 1.01306 16.811C1.00085 16.865 -0.210937 22.2713 0.0315927 27.5617C0.0404263 27.7533 0.198354 27.9043 0.390252 27.9043H4.08773C4.27877 27.9043 4.43634 27.7548 4.44639 27.5641C4.44934 27.5065 4.7091 22.6921 5.31115 19.1755C5.58722 20.8898 5.96779 23.3915 6.11408 24.9993C6.12837 25.1573 6.24479 25.2873 6.40035 25.3186C6.43669 25.326 10.0631 26.0508 13.9797 26.0555C13.9801 26.0555 13.9804 26.0556 13.9808 26.0556C13.987 26.0556 13.9933 26.0556 13.9995 26.0556C14.0057 26.0556 14.012 26.0556 14.0182 26.0556C14.0186 26.0556 14.0189 26.0555 14.0193 26.0555C17.9359 26.0508 21.5623 25.3261 21.5986 25.3186C21.7542 25.2872 21.8706 25.1573 21.885 24.9993C22.031 23.3917 22.4118 20.8899 22.6878 19.1755C23.2899 22.6921 23.5496 27.5065 23.5527 27.5641C23.5629 27.7548 23.7204 27.9043 23.9112 27.9043H27.6087C27.8006 27.9043 27.9586 27.7533 27.9674 27.5617C28.2101 22.2713 26.9983 16.865 26.9869 16.8149ZM17.6032 2.53938L18.4949 6.4883L15.7542 6.36376C15.6122 6.35651 15.4776 6.43652 15.415 6.56543C15.3523 6.69434 15.3722 6.84818 15.4658 6.95677L17.3653 9.1633L12.4244 13.1784C12.6449 12.7268 14.5226 8.59206 14.6158 8.369C16.1364 4.7276 16.5864 2.77056 16.5877 1.67246L17.6032 2.53938ZM12.248 1.0001H15.7497C15.958 1.41227 16.1182 2.88016 13.999 7.98147C11.8811 2.88446 12.0373 1.41471 12.248 1.0001ZM10.3947 2.53938L11.409 1.67354C11.4097 2.82622 11.9061 4.92173 13.6082 8.90311C13.3126 9.58674 13.0133 10.2509 12.7287 10.8665L10.6326 9.16323L12.5321 6.95669C12.6257 6.84803 12.6456 6.6942 12.5829 6.56536C12.5202 6.43652 12.3876 6.3573 12.2437 6.36369L9.50296 6.48822L10.3947 2.53938ZM12.4155 11.5375C12.0851 12.2383 11.7865 12.8512 11.5526 13.3237C11.4217 12.3415 11.2948 11.3972 11.1781 10.532L12.4155 11.5375ZM10.7195 7.1519L11.445 7.11893L10.8149 7.85083C10.776 7.56607 10.7439 7.33029 10.7195 7.1519ZM2.76398 27.1861H2.41538L2.76398 25.8883V27.1861ZM5.00557 17.1393C5.00542 17.1397 5.00528 17.1402 5.00528 17.1406C4.20968 20.1472 3.83486 25.7385 3.74861 27.1862H3.48209V23.1667C3.48209 22.9865 3.34858 22.8342 3.16997 22.8107C2.99186 22.7873 2.82295 22.8995 2.77626 23.0735L1.67177 27.1862H0.735338C0.562831 22.1068 1.70172 17.022 1.71429 16.9663C3.24129 9.87969 5.26174 6.16964 5.94272 5.05955C6.10359 5.27234 6.31108 5.61987 6.48279 6.15176C6.81273 7.17322 7.05159 9.04854 6.31797 12.182L5.00557 17.1393ZM6.50183 22.2369L8.96073 15.1167C9.02551 14.9294 8.92597 14.7248 8.73853 14.6602C8.55115 14.5956 8.34662 14.6949 8.28184 14.8824L6.27553 20.692C6.02445 19.0396 5.77883 17.5925 5.7198 17.2474C5.7198 17.2474 7.01518 12.354 7.0159 12.3507C8.12951 7.59925 7.13232 5.44033 6.50642 4.61679L9.46648 3.38956L8.69888 6.78929C8.67418 6.89852 8.70183 7.013 8.77379 7.09889C8.84575 7.18472 8.95463 7.23255 9.06544 7.22709L9.99908 7.18464C10.0392 7.47773 10.1047 7.95791 10.189 8.57784L9.84747 8.97464C9.78406 9.04818 9.75332 9.14413 9.76194 9.2408C9.77048 9.33746 9.81788 9.42645 9.89307 9.48763L10.3641 9.87042C10.9039 13.8623 11.7316 20.0654 12.1416 23.555C9.38618 23.4488 7.31646 23.1677 6.61429 23.0619C6.5786 22.7914 6.54082 22.515 6.50183 22.2369ZM6.80346 24.6639C6.77639 24.3941 6.744 24.1043 6.70751 23.8014C7.58463 23.927 9.60803 24.1805 12.2246 24.2762C12.2689 24.6697 12.3055 25.013 12.3327 25.2946C9.75246 25.1687 7.54024 24.7982 6.80346 24.6639ZM21.1957 24.6639C20.3038 24.8265 17.251 25.3354 13.9996 25.3374C13.6828 25.3372 13.3681 25.3321 13.0569 25.323C13.0307 25.0439 12.9943 24.6983 12.9497 24.2982C13.3776 24.3084 13.8189 24.3141 14.2718 24.3141C16.4328 24.3141 18.8514 24.1839 21.2913 23.8047C21.255 24.1064 21.2226 24.3951 21.1957 24.6639ZM21.7234 20.6935L19.7166 14.8823C19.6519 14.6949 19.4474 14.5955 19.2599 14.6601C19.0725 14.7248 18.9729 14.9293 19.0377 15.1167L21.497 22.2384C21.458 22.5166 21.4203 22.7931 21.3848 23.0635C18.3706 23.5495 15.3787 23.6428 12.8671 23.5785C12.6036 21.3245 12.1596 17.8976 11.7314 14.6669L18.105 9.48756C18.1803 9.42637 18.2276 9.33739 18.2363 9.24072C18.2448 9.14413 18.2139 9.04811 18.1507 8.97457L16.5531 7.11886L18.9326 7.22702C19.0449 7.23319 19.1523 7.18472 19.2243 7.09882C19.2962 7.01293 19.3239 6.89845 19.2992 6.78921L18.5314 3.38891L21.4928 4.61672C20.8668 5.44025 19.8696 7.59918 20.9832 12.3506C20.9841 12.3539 22.2793 17.2474 22.2793 17.2474C22.2202 17.5926 21.9745 19.0404 21.7234 20.6935ZM25.2351 27.1861V25.8883L25.5837 27.1861H25.2351ZM27.2637 27.1861H26.3273L25.2229 23.0735C25.1762 22.8995 25.0085 22.7871 24.8291 22.8106C24.6505 22.8342 24.517 22.9864 24.517 23.1666V27.1861H24.2506C24.1642 25.7384 23.7894 20.1472 22.9939 17.1406C22.9938 17.1401 22.9936 17.1396 22.9936 17.1392L21.6813 12.1818C20.6264 7.67631 21.5652 5.72588 22.0585 5.06278C22.7415 6.17704 24.7595 9.8873 26.2856 16.97C26.2974 17.0221 27.4364 22.1068 27.2637 27.1861Z" fill="#363636"/>
<path d="M18.1865 19.4141H15.154C14.9557 19.4141 14.7949 19.5749 14.7949 19.7732V20.8809C14.7949 21.025 14.881 21.1551 15.0138 21.2115L16.53 21.8546L16.5302 21.854C16.5742 21.8727 16.6218 21.8832 16.6703 21.8832C16.7171 21.8832 16.7647 21.8739 16.8104 21.8546L18.3266 21.2115C18.4593 21.1551 18.5455 21.0249 18.5455 20.8809V19.7732C18.5456 19.5749 18.3848 19.4141 18.1865 19.4141ZM17.8274 20.6431L16.6702 21.134L15.5132 20.6431V20.1322H17.8275V20.6431H17.8274Z" fill="#363636"/>
</g>
<defs>
<clipPath id="clip0">
<rect width="28" height="28" fill="white" transform="translate(0 0.0930176)"/>
</clipPath>
</defs>
</svg>
