<svg width="28" height="29" viewBox="0 0 28 29" fill="none" xmlns="http://www.w3.org/2000/svg">
<g clip-path="url(#clip0)">
<path d="M13.159 11.2991C13.4818 11.5165 13.9042 11.1884 13.7843 10.8229C13.667 10.4653 13.1494 10.4467 13.0061 10.7945C12.9315 10.975 12.995 11.191 13.159 11.2991Z" fill="#363636"/>
<path d="M27.283 14.9965C26.8658 14.5795 25.9923 14.3007 24.6119 14.1443C23.8055 14.0529 23.0809 14.0339 22.8439 14.0301C22.4571 13.8748 21.9111 13.6342 21.2413 13.3119C21.3612 13.1491 21.3479 12.9192 21.2008 12.7718C21.0382 12.6095 20.775 12.6095 20.6127 12.7718L20.4586 12.9258C20.2559 12.8235 20.0455 12.7154 19.8274 12.6016L19.8344 12.5945C19.9968 12.4322 19.9968 12.169 19.8344 12.0064C19.6721 11.8441 19.4087 11.8441 19.2463 12.0064L19.0596 12.1931C18.8588 12.0842 18.6533 11.9712 18.4431 11.8541L18.4681 11.8291C18.6304 11.6667 18.6304 11.4036 18.4681 11.241C18.3057 11.0786 18.0423 11.0786 17.88 11.241L17.6926 11.4283C17.4946 11.3143 17.2934 11.197 17.0894 11.0761L17.1018 11.0637C17.2641 10.9013 17.2641 10.6381 17.1018 10.4756C16.9394 10.3132 16.6762 10.3132 16.5137 10.4756L16.3547 10.6347C15.4938 10.109 14.5915 9.52966 13.669 8.89797C13.5031 8.773 12.2049 7.82623 11.2389 8.00268C10.9142 8.06207 10.6508 8.23937 10.4769 8.51559C9.83943 9.52774 9.83836 10.325 10.5042 11.1694C9.88002 11.5527 9.24021 11.8242 8.68501 11.8242C7.70683 11.8242 7.19242 10.8881 6.73869 10.0624C6.36399 9.38076 6.01023 8.7369 5.37706 8.7369C5.27302 8.7369 5.16578 8.74331 5.05854 8.75591C3.95561 8.88409 2.97465 9.60549 2.49827 10.6388C2.10093 11.5016 1.55085 12.7801 1.18727 13.972C0.766216 15.3513 0.687389 16.281 0.946513 16.8604L0.0311386 19.0637C-0.0374344 19.2288 0.00699917 19.4191 0.141795 19.5366C0.228954 19.6129 2.33464 21.4033 7.03092 21.4033H21.9534C24.9894 21.4033 27.3055 20.0771 27.4685 18.2863C27.7511 18.0116 27.9365 17.5873 27.9859 17.0859C28.0636 16.296 27.8009 15.5147 27.283 14.9965ZM25.9752 15.2407C25.3878 15.4671 24.5952 15.766 23.9133 15.9999C23.4741 16.1505 22.1375 16.6087 21.528 16.2605C21.4857 16.2364 21.437 16.2035 21.389 16.1537C22.5506 15.9888 23.2048 15.6685 23.3821 15.1804C23.4126 15.0963 23.4333 14.995 23.4288 14.8803C24.2962 14.9241 25.2923 15.0422 25.9752 15.2407ZM15.4477 12.1297C15.5289 12.2108 15.6352 12.2514 15.7418 12.2514C15.8482 12.2514 15.9546 12.2108 16.0358 12.1297L16.482 11.6836C16.686 11.8052 16.8866 11.9233 17.0836 12.0376L16.814 12.307C16.6517 12.4693 16.6517 12.7327 16.814 12.8951C16.8952 12.9763 17.0018 13.0168 17.1082 13.0168C17.2146 13.0168 17.3209 12.9763 17.4023 12.8951L17.8323 12.4651C18.0428 12.583 18.2478 12.6964 18.4474 12.8054L18.1803 13.0724C18.018 13.2347 18.018 13.4981 18.1803 13.6605C18.2617 13.7417 18.3681 13.7823 18.4745 13.7823C18.5809 13.7823 18.6873 13.7417 18.7687 13.6605L19.2134 13.2157C19.432 13.3307 19.6419 13.4394 19.843 13.5417L19.5469 13.8378C19.3845 14.0002 19.3845 14.2635 19.5469 14.4259C19.6281 14.5071 19.7347 14.5477 19.841 14.5477C19.9474 14.5477 20.0538 14.5071 20.135 14.4259L20.6278 13.9331C21.6207 14.4169 22.2898 14.7004 22.5203 14.7957C22.5654 14.8482 22.5863 14.886 22.5942 14.9057C22.5205 15.0063 22.064 15.2731 20.7404 15.3908C19.1429 15.5329 17.1011 17.1942 16.6292 18.3621C15.3909 18.2344 14.0046 18.0748 12.587 17.9024C12.4367 17.2175 11.8701 16.55 10.8746 15.889L15.302 10.9622C15.4526 11.0566 15.6017 11.1493 15.7493 11.2399L15.4479 11.5416C15.2853 11.7039 15.2853 11.9673 15.4477 12.1297ZM11.1806 8.95864C11.2301 8.87982 11.2923 8.83859 11.388 8.82107C11.7415 8.75591 12.3292 9.02529 12.7859 9.3045C12.3903 9.70739 11.8206 10.2338 11.1921 10.7012C10.7072 10.1222 10.7217 9.68753 11.1806 8.95864ZM3.25364 10.9868C3.60932 10.2152 4.33757 9.67684 5.15467 9.582C5.2303 9.57324 5.30506 9.56854 5.37706 9.56854C5.51826 9.56854 5.83805 10.1504 6.00981 10.463C6.29435 10.981 6.63807 11.6061 7.14329 12.0562C6.62248 12.3388 6.00874 12.3958 5.44221 12.2108L3.05262 11.4309C3.11735 11.2859 3.18379 11.1387 3.25364 10.9868ZM2.22163 13.4896C2.92338 13.6633 4.57127 14.0927 6.30439 14.6985C6.3499 14.7143 6.39604 14.7218 6.44154 14.7218C6.61351 14.7218 6.77436 14.6145 6.83418 14.443C6.9098 14.2264 6.79573 13.989 6.5789 13.9132C4.89042 13.3232 3.28035 12.897 2.51536 12.7056C2.58009 12.542 2.64866 12.3726 2.72151 12.1978L5.18394 13.0015C5.48793 13.1008 5.80152 13.1497 6.11363 13.1497C6.65815 13.1497 7.19819 13.0008 7.67393 12.7101L7.95442 12.5388C8.17466 12.6133 8.41691 12.6558 8.68501 12.6558C10.5422 12.6558 12.7471 10.5422 13.4838 9.77789C13.8592 10.0321 14.2285 10.2756 14.5906 10.5095L10.1502 15.4509C9.58052 15.1345 8.91188 14.8192 8.14176 14.5037C7.92921 14.4167 7.68632 14.5184 7.59938 14.731C7.51222 14.9435 7.6139 15.1862 7.82646 15.2733C10.4162 16.3344 11.3542 17.2034 11.6616 17.7885C7.20887 17.2355 2.69694 16.5978 1.6786 16.4528C1.54765 16.0428 1.6551 15.0926 2.22163 13.4896ZM25.3536 19.806C24.463 20.2997 23.2556 20.5716 21.9534 20.5716H7.03092C3.5243 20.5716 1.56474 19.5046 0.924724 19.0808L1.66792 17.2914C3.96629 17.6191 17.2517 19.4922 20.6671 19.4922C20.7483 19.4922 20.8291 19.4916 20.9092 19.4905C21.1388 19.4871 21.3223 19.2982 21.3191 19.0688C21.3157 18.8411 21.1303 18.6588 20.9034 18.6588C20.9013 18.6588 20.8993 18.6588 20.8974 18.6588C20.8211 18.6599 20.7445 18.6603 20.6671 18.6603C19.9812 18.6603 18.8665 18.5802 17.51 18.4501C17.6839 18.1684 18.0112 17.7772 18.5068 17.3639C19.1718 16.8091 19.8885 16.419 20.4898 16.2746C20.6231 16.5833 20.8323 16.8206 21.1155 16.9825C21.4127 17.1524 21.763 17.219 22.1362 17.219C22.8049 17.219 23.5461 17.005 24.1831 16.7864C25.1496 16.4551 26.3322 15.996 26.8624 15.7878C27.1267 16.1718 27.1931 16.6495 27.1583 17.0045C27.1271 17.3205 27.0164 17.5856 26.8658 17.7119C26.5497 17.8199 24.8687 18.3645 22.5265 18.5755C22.2977 18.5963 22.1289 18.7983 22.1497 19.0271C22.1704 19.2559 22.3735 19.4245 22.6013 19.404C24.3485 19.2465 25.7294 18.9154 26.5076 18.6937C26.2553 19.2333 25.7135 19.6065 25.3536 19.806Z" fill="#363636"/>
</g>
<defs>
<clipPath id="clip0">
<rect width="28" height="28" fill="white" transform="translate(0 0.707336)"/>
</clipPath>
</defs>
</svg>
