<svg width="28" height="28" viewBox="0 0 28 28" fill="none" xmlns="http://www.w3.org/2000/svg">
<g clip-path="url(#clip0)">
<path d="M0.824895 9.11573C0.979821 9.72289 1.52537 10.1468 2.15233 10.1468C2.26299 10.1468 2.3737 10.1332 2.48182 10.1064L4.75114 9.5428C5.00825 9.48109 5.07504 9.68121 5.07504 9.79589V24.1854C5.07504 24.9367 5.68703 25.5485 6.43869 25.5485H21.5727C22.3248 25.5485 22.9371 24.9367 22.9371 24.1854V9.79923C22.9371 9.69969 22.9657 9.5329 23.1612 9.5329C23.1916 9.5329 23.2262 9.53751 23.2602 9.54614L25.5191 10.1069C25.6268 10.1337 25.7381 10.1473 25.8488 10.1473C26.4759 10.1473 27.0215 9.72335 27.1759 9.11625L27.9576 6.05256C28.0477 5.69901 27.9947 5.33239 27.8076 5.01966C27.621 4.7075 27.3234 4.48694 26.9694 4.39914L19.8038 2.62017C19.3727 2.51049 18.928 2.45442 18.4798 2.45442L16.7265 2.45154L16.6428 2.79783C16.3461 4.03299 15.2525 4.89541 13.9832 4.89541C12.7137 4.89541 11.6199 4.03304 11.3235 2.79783L11.2399 2.45154H9.59508L9.51431 2.45488C9.06985 2.45488 8.62556 2.51095 8.19729 2.61971L1.03187 4.39909C0.67751 4.48688 0.380208 4.70744 0.193099 5.0196C0.00645024 5.33187 -0.0469766 5.69895 0.0434691 6.0525L0.824895 9.11573ZM0.968595 5.4838C1.031 5.37942 1.13037 5.30567 1.24926 5.27671L3.65318 4.67975L4.11508 6.49759L6.9626 5.77396L6.50461 3.97207L8.41911 3.49659C8.77744 3.40533 9.14573 3.35882 9.53946 3.35882L10.5469 3.35548C11.051 4.81096 12.4172 5.79935 13.9841 5.79935C15.5513 5.79935 16.9173 4.81096 17.4207 3.35548L18.485 3.35882C18.8526 3.35882 19.2228 3.40533 19.5839 3.49733L26.7518 5.27671C26.8702 5.30613 26.9693 5.37988 27.0316 5.4838C27.0944 5.58778 27.112 5.71017 27.0814 5.82918L26.2998 8.89287C26.238 9.13571 25.9812 9.29167 25.7371 9.22973L23.4786 8.66898C23.3728 8.64267 23.266 8.62965 23.1616 8.62965C22.5182 8.62965 22.0336 9.1326 22.0336 9.79969V24.1864C22.0336 24.4396 21.827 24.6455 21.5736 24.6455H6.43869C6.18514 24.6455 5.97898 24.4397 5.97898 24.1864V9.79635C5.97898 9.12921 5.49364 8.62626 4.84999 8.62626C4.74607 8.62626 4.63899 8.63927 4.53334 8.66558L2.26402 9.22921C2.01531 9.29081 1.76269 9.13519 1.70039 8.89235L0.918968 5.82866C0.888685 5.71017 0.906071 5.58778 0.968595 5.4838Z" fill="#363636"/>
<path d="M10.3515 16.4297H11.8971V8.75696H10.6374C10.6374 8.82386 10.618 8.92639 10.5791 9.06393C10.5122 9.29301 10.4141 9.47632 10.2834 9.61432C10.0936 9.81542 9.84687 9.94979 9.5445 10.0167C9.35474 10.059 9.02238 10.0907 8.54712 10.112V11.1384H10.3515V16.4297H10.3515Z" fill="#363636"/>
<path d="M16.8066 16.6206C17.784 16.6206 18.4694 16.2789 18.8626 15.5944C19.2564 14.9098 19.4528 13.9348 19.4528 12.6679C19.4528 11.4012 19.2564 10.4244 18.8626 9.73652C18.4704 9.04864 17.784 8.70465 16.8066 8.70465C15.8296 8.70465 15.1446 9.04864 14.7507 9.73652C14.3579 10.4244 14.1611 11.4016 14.1611 12.6679C14.1611 13.9348 14.3579 14.9098 14.7507 15.5944C15.1446 16.2789 15.8296 16.6206 16.8066 16.6206ZM15.9177 10.6146C16.0626 10.1699 16.3596 9.94821 16.8066 9.94821C17.2552 9.94821 17.5487 10.1704 17.6878 10.6146C17.8272 11.0596 17.8971 11.7436 17.8971 12.6679C17.8971 13.5497 17.8272 14.2248 17.6878 14.6923C17.5482 15.1592 17.2552 15.3934 16.8066 15.3934C16.3595 15.3934 16.0631 15.1593 15.9177 14.6923C15.773 14.2248 15.7011 13.5501 15.7011 12.6679C15.7011 11.7437 15.773 11.0596 15.9177 10.6146Z" fill="#363636"/>
</g>
<defs>
<clipPath id="clip0">
<rect width="28" height="28" fill="white"/>
</clipPath>
</defs>
</svg>