<svg width="28" height="28" viewBox="0 0 28 28" fill="none" xmlns="http://www.w3.org/2000/svg">
<path d="M13.9947 23.1179C13.0958 23.1179 12.3645 23.8435 12.3645 24.7353C12.3645 25.6272 13.0958 26.3529 13.9947 26.3529C14.8936 26.3529 15.625 25.6272 15.625 24.7353C15.625 23.8435 14.8937 23.1179 13.9947 23.1179ZM13.9947 25.4957C13.5684 25.4957 13.2217 25.1546 13.2217 24.7353C13.2217 24.3161 13.5684 23.975 13.9947 23.975C14.4211 23.975 14.7678 24.3161 14.7678 24.7353C14.7679 25.1546 14.421 25.4957 13.9947 25.4957Z" fill="#363636"/>
<path d="M24.6412 18.392C25.7491 18.392 26.6505 17.4982 26.6505 16.3994C26.6505 15.543 26.1027 14.8111 25.3363 14.53C25.3411 14.4012 25.3439 14.2717 25.3439 14.1418C25.3438 13.0604 25.1888 11.9911 24.8831 10.9635C24.8156 10.7366 24.5769 10.6074 24.3501 10.6749C24.1233 10.7424 23.994 10.981 24.0615 11.2079C24.3437 12.1561 24.4867 13.1433 24.4867 14.1418C24.4867 14.2328 24.4844 14.3233 24.482 14.4138C23.4483 14.4946 22.6319 15.354 22.6319 16.3995C22.6319 17.1503 23.053 17.8053 23.6731 18.1448C23.5696 18.3885 23.4571 18.6276 23.3358 18.8615C22.9083 19.1491 22.7013 19.2462 22.5162 19.2462C22.3482 19.2462 22.1308 19.1737 21.7144 18.9789C21.6178 18.9337 21.5148 18.9107 21.4084 18.9107C21.198 18.9107 20.9995 19.0022 20.8639 19.1616C20.6549 19.4068 20.6371 19.7645 20.8206 20.0314C21.3231 20.7623 21.3312 20.8529 20.9657 21.6457C20.9218 21.741 20.9011 21.8424 20.9011 21.9431C20.8323 22.0029 20.7633 22.0625 20.6929 22.1205C20.334 21.7894 19.8534 21.5863 19.3257 21.5863C18.2177 21.5863 17.3164 22.4801 17.3164 23.5788C17.3164 23.7127 17.33 23.8436 17.3555 23.9702C17.3068 23.9866 17.2579 24.0025 17.2088 24.0183C16.878 22.5622 15.563 21.4708 13.9948 21.4708C12.4269 21.4708 11.1122 22.5618 10.7811 24.0175C10.7098 23.9948 10.6388 23.9714 10.5682 23.9473C10.5909 23.8278 10.6032 23.7047 10.6032 23.5788C10.6032 22.4801 9.70188 21.5863 8.59391 21.5863C8.08247 21.5863 7.61539 21.777 7.2603 22.0901C7.1757 22.0199 7.09198 21.9486 7.00962 21.8758C7.03133 21.7392 7.01432 21.5963 6.95378 21.4651C6.58841 20.6724 6.59651 20.5819 7.09909 19.8509C7.2824 19.584 7.26457 19.2264 7.05572 18.9812C6.91987 18.8218 6.72141 18.7304 6.51114 18.7304C6.40472 18.7304 6.30169 18.7533 6.20522 18.7985C5.78867 18.9933 5.57128 19.0657 5.40328 19.0657C5.21789 19.0657 5.01063 18.9684 4.58204 18.68C4.57264 18.6737 4.56285 18.668 4.55317 18.6621C4.47037 18.4938 4.39179 18.3232 4.31812 18.15C4.9432 17.8118 5.36834 17.154 5.36834 16.3995C5.36834 16.1628 5.17644 15.9709 4.93975 15.9709C4.70307 15.9709 4.51117 16.1628 4.51117 16.3995C4.51117 17.0256 3.99432 17.5349 3.35901 17.5349C2.72371 17.5349 2.20691 17.0256 2.20691 16.3995C2.20691 15.7734 2.72371 15.2641 3.35901 15.2641C3.58427 15.2641 3.80226 15.3281 3.98945 15.449C4.18824 15.5774 4.45358 15.5204 4.58199 15.3215C4.71045 15.1228 4.65336 14.8574 4.45457 14.729C4.16981 14.545 3.84486 14.4369 3.50694 14.4124C3.50448 14.3225 3.50279 14.2324 3.50279 14.1418C3.50279 9.35931 6.79185 5.32267 11.2504 4.12666C11.3629 4.55568 11.7529 4.87363 12.2167 4.87363H15.884C16.3381 4.87363 16.7218 4.56908 16.8433 4.15367C17.8654 4.43794 18.8416 4.87582 19.7402 5.45862C21.4042 6.53771 22.7195 8.05163 23.5438 9.83673C23.643 10.0516 23.8975 10.1455 24.1125 10.0462C24.3274 9.94698 24.4211 9.6923 24.322 9.47744C23.4297 7.54517 22.0067 5.90673 20.2066 4.73943C19.3108 4.15854 18.3439 3.71114 17.3327 3.4038C18.0083 3.11259 18.6453 2.73043 19.2283 2.26318C19.418 2.38322 19.6421 2.45382 19.8829 2.45382C20.5602 2.45382 21.1112 1.90345 21.1112 1.22691C21.1112 0.550374 20.5605 0 19.8832 0C19.2059 0 18.6549 0.550374 18.6549 1.22691C18.6549 1.34985 18.6736 1.46847 18.7074 1.58052C18.1081 2.06204 17.4511 2.43753 16.7615 2.7061C16.5914 2.39602 16.262 2.18531 15.8841 2.18531H12.2169C11.8391 2.18531 11.5096 2.39607 11.3395 2.7061C10.6499 2.43753 9.99292 2.06204 9.3936 1.58052C9.42746 1.46847 9.4461 1.3499 9.4461 1.22691C9.44616 0.550374 8.89513 0 8.21783 0C7.54052 0 6.98955 0.550374 6.98955 1.22691C6.98955 1.90345 7.54058 2.45382 8.21783 2.45382C8.45861 2.45382 8.68278 2.38328 8.87254 2.26318C9.4431 2.72053 10.0655 3.09607 10.7252 3.38488C6.05625 4.77766 2.64578 9.07258 2.64578 14.1418C2.64578 14.2731 2.64835 14.404 2.65294 14.5343C1.89241 14.8184 1.34985 15.5471 1.34985 16.3994C1.34985 17.4981 2.25121 18.392 3.35912 18.392C3.40287 18.392 3.44624 18.3901 3.48928 18.3873C3.54413 18.5197 3.60166 18.6506 3.66144 18.7804C3.45838 18.9916 3.40096 19.3094 3.52477 19.5783C3.89014 20.3709 3.88204 20.4615 3.37958 21.1925C3.19621 21.4593 3.21393 21.8169 3.42262 22.062C3.5584 22.2215 3.75697 22.3131 3.96736 22.3131C3.96736 22.3131 3.96736 22.3131 3.96741 22.3131C4.07378 22.3131 4.1767 22.2901 4.27322 22.245C4.68989 22.0501 4.90721 21.9777 5.07521 21.9777C5.26066 21.9777 5.46792 22.075 5.89656 22.3634C6.01502 22.4432 6.15332 22.4853 6.29644 22.4853C6.33045 22.4853 6.36409 22.4822 6.39739 22.4774C6.51366 22.5814 6.632 22.683 6.75259 22.7822C6.64474 23.0263 6.58448 23.2956 6.58448 23.5788C6.58448 24.6775 7.48583 25.5713 8.5938 25.5713C9.26662 25.5713 9.86277 25.2414 10.2276 24.7365C10.3847 24.7913 10.5434 24.8427 10.7036 24.8908C10.7858 26.619 12.2305 27.9999 13.9947 27.9999C14.6243 27.9999 15.2365 27.8233 15.7651 27.4891C15.9652 27.3627 16.0248 27.0979 15.8984 26.8978C15.772 26.6978 15.5073 26.6381 15.3071 26.7646C14.9158 27.012 14.4619 27.1428 13.9947 27.1428C12.6505 27.1428 11.5568 26.0629 11.5568 24.7353C11.5568 23.4079 12.6505 22.3279 13.9947 22.3279C15.3389 22.3279 16.4326 23.4079 16.4326 24.7353C16.4326 25.1447 16.3268 25.5487 16.1268 25.9038C16.0106 26.11 16.0835 26.3714 16.2897 26.4876C16.4959 26.6038 16.7573 26.5308 16.8735 26.3246C17.1203 25.8867 17.2613 25.3944 17.2856 24.8917C17.4269 24.8492 17.567 24.804 17.706 24.7563C18.0721 25.2501 18.6616 25.5714 19.3257 25.5714C20.4336 25.5714 21.335 24.6776 21.335 23.5789C21.335 23.3121 21.2815 23.0578 21.1852 22.8252C21.262 22.7626 21.3372 22.6982 21.4124 22.6337C21.4803 22.6544 21.5512 22.6658 21.6231 22.6658C21.7661 22.6658 21.9044 22.6238 22.0231 22.544C22.4516 22.2556 22.6589 22.1583 22.8442 22.1583C23.0122 22.1583 23.2296 22.2308 23.6462 22.4257C23.7428 22.4708 23.8457 22.4937 23.952 22.4937C24.1624 22.4937 24.3609 22.4022 24.4967 22.2427C24.7055 21.9975 24.7232 21.6399 24.5399 21.3731C24.0374 20.6421 24.0293 20.5515 24.3947 19.7588C24.5207 19.4853 24.4593 19.161 24.2476 18.9499C24.3364 18.7648 24.4206 18.5771 24.4993 18.3867C24.5463 18.3898 24.5935 18.392 24.6412 18.392ZM19.8832 0.857116C20.0879 0.857116 20.2544 1.02298 20.2544 1.22691C20.2544 1.43079 20.0878 1.59671 19.8832 1.59671C19.6786 1.59671 19.512 1.43084 19.512 1.22691C19.512 1.02304 19.6786 0.857116 19.8832 0.857116ZM14.4791 3.04237H15.8842C15.9616 3.04237 16.027 3.10778 16.027 3.18521V3.87356C16.027 3.951 15.9616 4.01641 15.8842 4.01641H14.4791V3.04237ZM12.0741 3.18527C12.0741 3.10783 12.1395 3.04242 12.2169 3.04242H13.6219V4.01646H12.2169C12.1395 4.01646 12.0741 3.95106 12.0741 3.87362V3.18527ZM8.21783 1.5966C8.01313 1.5966 7.84666 1.43073 7.84666 1.2268C7.84666 1.02287 8.01313 0.857116 8.21783 0.857116C8.42252 0.857116 8.58904 1.02298 8.58904 1.22691C8.58904 1.43079 8.42252 1.5966 8.21783 1.5966ZM6.00189 21.4156C5.67087 21.2229 5.39202 21.1206 5.07521 21.1206C4.83968 21.1206 4.60868 21.1777 4.34038 21.2817C4.69021 20.6811 4.72253 20.2786 4.47672 19.628C4.80779 19.8207 5.08659 19.923 5.40328 19.923H5.40339C5.63904 19.923 5.87004 19.8659 6.13828 19.7619C5.78845 20.3624 5.75613 20.7649 6.00189 21.4156ZM8.59396 24.7142C7.95866 24.7142 7.44181 24.2049 7.44181 23.5789C7.44181 22.9528 7.95866 22.4435 8.59396 22.4435C9.22927 22.4435 9.74607 22.9528 9.74607 23.5789C9.74607 24.2049 9.22921 24.7142 8.59396 24.7142ZM19.3257 24.7142C18.6904 24.7142 18.1736 24.2049 18.1736 23.5788C18.1736 22.9527 18.6904 22.4434 19.3257 22.4434C19.961 22.4434 20.4779 22.9527 20.4779 23.5788C20.4779 24.2049 19.961 24.7142 19.3257 24.7142ZM22.8442 21.301C22.5274 21.301 22.2486 21.4032 21.9176 21.596C22.1633 20.9454 22.131 20.5428 21.7812 19.9424C22.0496 20.0463 22.2805 20.1034 22.5161 20.1034C22.8329 20.1034 23.1117 20.0012 23.4428 19.8084C23.197 20.459 23.2294 20.8616 23.5792 21.4621C23.311 21.3582 23.08 21.301 22.8442 21.301ZM23.4891 16.3995C23.4891 15.7734 24.0059 15.2641 24.6412 15.2641C25.2765 15.2641 25.7933 15.7734 25.7933 16.3995C25.7933 17.0256 25.2765 17.5349 24.6412 17.5349C24.0059 17.5349 23.4891 17.0256 23.4891 16.3995Z" fill="#363636"/>
</svg>
