<svg width="18" height="28" viewBox="0 0 18 28" fill="none" xmlns="http://www.w3.org/2000/svg">
<path d="M17.3862 27.5219C17.3838 27.4959 17.141 24.8824 16.3836 21.5033C15.1374 15.9435 13.4582 12.5172 12.2439 10.5987V8.90586L13.6356 2.8752C13.6498 2.81395 13.6501 2.75111 13.638 2.69073L13.6383 2.69068L13.1707 0.352461C13.1297 0.147492 12.9498 0 12.7408 0H11.3379C11.0958 0 10.8995 0.196273 10.8995 0.43843V2.67881C10.2546 2.95526 9.58035 3.42814 9.01849 4.22723C9.01428 4.23325 9.00017 4.2333 8.99962 4.2333C8.99902 4.2333 8.98497 4.23325 8.98076 4.22723C8.41895 3.42814 7.74471 2.95531 7.09989 2.67887V0.43843C7.09989 0.196328 6.90362 0 6.66146 0H5.25862C5.04965 0 4.86973 0.147492 4.82872 0.352406L4.36103 2.69062L4.3613 2.69068C4.34922 2.75105 4.34955 2.81389 4.36371 2.87514L5.7554 8.90586L5.75545 10.5986C4.54106 12.5171 2.86194 15.9434 1.61572 21.5032C0.858295 24.8824 0.615538 27.4959 0.613132 27.5219C0.601975 27.6446 0.642936 27.7662 0.726006 27.8572C0.809077 27.9482 0.926545 27.9999 1.04976 27.9999H16.9496C17.0728 27.9999 17.1903 27.9482 17.2733 27.8572C17.3564 27.7663 17.3973 27.6446 17.3862 27.5219ZM11.7763 0.876805H12.3814L12.6676 2.3083C12.4209 2.31197 12.1147 2.33603 11.7762 2.40532V0.876805H11.7763ZM5.61797 0.876805H6.22303V2.40538C5.88457 2.33603 5.57837 2.31197 5.33168 2.30836L5.61797 0.876805ZM5.33534 3.18631C6.02955 3.20184 7.34232 3.42152 8.26342 4.73156C8.43005 4.96858 8.7053 5.11011 8.99962 5.11011C9.29395 5.11011 9.56908 4.96858 9.73577 4.73156C10.6632 3.41255 11.9712 3.19632 12.6646 3.18385L11.4567 8.4175H6.54257L5.33534 3.18631ZM11.3672 9.29436V10.2881H6.63231V9.29436H11.3672ZM1.53833 27.1232C1.78104 25.0567 2.94194 16.7539 6.43555 11.1649H7.08567L6.22806 16.7392C6.19126 16.9785 6.35537 17.2024 6.59469 17.2392C6.61733 17.2426 6.63975 17.2443 6.6619 17.2443C6.87463 17.2443 7.06133 17.0892 7.09464 16.8726L7.97281 11.1649H8.56119V20.0793C8.56119 20.3214 8.75747 20.5178 8.99962 20.5178C9.24172 20.5178 9.43805 20.3215 9.43805 20.0793V11.1649H10.0264L10.9045 16.8726C10.9378 17.0894 11.1246 17.2443 11.3372 17.2443C11.3594 17.2443 11.3819 17.2426 11.4045 17.2392C11.6438 17.2024 11.8079 16.9786 11.7711 16.7392L10.9135 11.1649H11.5637C15.0551 16.7506 16.2177 25.056 16.4609 27.1232H1.53833Z" fill="#363636"/>
</svg>
