<svg width="14" height="28" viewBox="0 0 14 28" fill="none" xmlns="http://www.w3.org/2000/svg">
<path d="M13.6511 27.1897C13.6364 27.1085 12.1678 19.0513 12.0097 18.1421C11.8476 17.2097 11.6172 14.1593 11.7735 11.8937C11.7837 11.746 11.7953 11.5852 11.8078 11.413C11.9994 8.76898 12.3533 3.87166 10.8944 1.18002V0.328569C10.8944 0.147068 10.7474 0 10.5659 0H3.43552C3.25402 0 3.10695 0.147068 3.10695 0.328569V1.17996C1.64797 3.87166 2.00184 8.76892 2.19346 11.413C2.20601 11.5853 2.21758 11.746 2.22783 11.8937C2.3841 14.1593 2.15377 17.2097 1.99166 18.1421C1.83355 19.0513 0.365105 27.1084 0.350319 27.1897C0.323179 27.3387 0.401313 27.4869 0.539575 27.5487C0.580843 27.5671 1.57279 28 3.54316 28C5.5038 28 6.64847 27.574 6.69625 27.5558C6.82886 27.5054 6.91422 27.3757 6.90791 27.234C6.9041 27.1491 6.52789 18.7182 6.48833 16.0311C6.46526 14.4639 6.75559 11.571 7.00076 9.43749C7.24594 11.5709 7.5362 14.4637 7.5132 16.0311C7.47364 18.7182 7.09743 27.1492 7.09362 27.234C7.08724 27.3757 7.17261 27.5055 7.30528 27.5558C7.35306 27.5739 8.49766 28 10.4584 28C12.4288 28 13.4208 27.5671 13.462 27.5487C13.6001 27.4869 13.6783 27.3387 13.6511 27.1897ZM10.2373 0.930573H7.3292V0.657138H10.2373V0.930573ZM6.67206 0.657138V0.930573H3.76409V0.657138H6.67206ZM5.83119 16.0407C5.86694 18.4735 6.17697 25.5807 6.24013 27.0113C5.83454 27.1265 4.89253 27.3429 3.5431 27.3429C2.26023 27.3429 1.42737 27.1473 1.04702 27.0317C1.30784 25.6005 2.49726 19.07 2.63907 18.2547C2.80585 17.2958 3.04321 14.1655 2.88346 11.8487C2.87321 11.7001 2.86151 11.5386 2.84896 11.3656C2.67764 9.00194 2.32522 4.13905 3.63306 1.58778H4.61739L4.3933 3.09289C4.36656 3.27235 4.49036 3.43953 4.66989 3.46627C4.68632 3.4687 4.70262 3.46995 4.71865 3.46995C4.8788 3.46995 5.01896 3.35278 5.04321 3.18968L5.28169 1.58778H6.67219V6.72344C6.60707 7.21065 5.79196 13.3761 5.83119 16.0407ZM10.4583 27.3429C9.10847 27.3429 8.16633 27.1264 7.76114 27.0114C7.82429 25.5807 8.13433 18.4735 8.17008 16.0407C8.20931 13.3761 7.39426 7.21065 7.3292 6.72344V1.58771H8.71977L8.95818 3.18962C8.98243 3.35272 9.12267 3.46989 9.28275 3.46989C9.29878 3.46989 9.31508 3.46864 9.33151 3.46621C9.5109 3.43953 9.63478 3.27235 9.6081 3.09282L9.38414 1.58771H10.3684C11.6761 4.13898 11.3236 9.00181 11.1524 11.3655C11.1398 11.5386 11.1281 11.7001 11.1179 11.8486C10.9581 14.1655 11.1955 17.2958 11.3623 18.2546C11.504 19.07 12.6936 25.6003 12.9544 27.0316C12.5735 27.1474 11.7408 27.3429 10.4583 27.3429Z" fill="#363636"/>
</svg>
