<svg width="28" height="28" viewBox="0 0 28 28" fill="none" xmlns="http://www.w3.org/2000/svg">
<g clip-path="url(#clip0)">
<path d="M24.1169 22.9611C24.4188 22.9611 24.6638 22.7161 24.6638 22.4142C24.6638 22.1122 24.4188 21.8671 24.1169 21.8671C23.8149 21.8671 23.5698 22.1122 23.5698 22.4142C23.5698 22.7161 23.8149 22.9611 24.1169 22.9611Z" fill="#363636"/>
<path d="M0.0751563 10.9473C0.201408 11.5685 0.415672 12.153 0.712181 12.6845C1.67733 14.4155 2.13021 16.218 2.13021 17.8512V24.6019C2.13021 24.9038 2.37503 25.1488 2.67709 25.1488H4.86481C5.16666 25.1488 5.41168 24.9038 5.41168 24.6019V18.5004C5.41168 17.2676 5.6958 16.0303 6.23392 14.9205L6.28391 14.84C8.87345 16.9954 10.9465 19.7428 12.2998 22.8196C12.9218 24.2345 14.3018 25.1488 15.8151 25.1488H20.2878C22.4473 25.1488 24.1445 25.1041 25.4081 24.8867C26.0355 24.7786 27.9447 24.4502 27.9447 22.9611C27.9447 22.119 27.247 20.8962 26.1671 19.846C25.4421 19.1404 23.9151 17.9114 21.838 17.6059C21.6765 17.5822 21.5131 17.6318 21.392 17.741C20.8498 18.2304 19.7873 18.5856 18.8659 18.5856C17.5562 18.5856 16.1693 17.8379 15.6402 16.8465C15.6297 16.8271 15.6182 16.8083 15.6056 16.7901L11.9548 11.5813C9.69526 8.35797 6.99784 5.46829 3.93768 2.99282C3.73816 2.83132 3.4534 2.83025 3.25281 2.99026C2.39917 3.67065 1.68695 4.48455 1.1358 5.40933C0.0728064 7.19373 -0.269418 9.22849 0.0717383 10.9309C0.0728064 10.9364 0.0738745 10.942 0.0751563 10.9473ZM4.31772 18.5004V24.0548H3.22397V17.8512C3.22397 17.6867 3.21863 17.5094 3.20837 17.3248C3.04196 14.3268 1.73907 12.3474 1.49426 11.8084C2.8811 12.4516 4.19659 13.2384 5.42044 14.1572C4.82999 15.113 4.31772 16.7897 4.31772 18.5004ZM2.07553 5.96924C2.48483 5.28244 2.99603 4.66485 3.59866 4.12866C6.43622 6.47574 8.94438 9.19239 11.0592 12.2092L14.6917 17.3921C15.4189 18.7196 17.1676 19.6796 18.8659 19.6796C19.943 19.6796 21.1495 19.2961 21.9117 18.7275C23.5673 19.0426 24.8021 20.0438 25.4045 20.63C26.354 21.5537 26.8507 22.5018 26.8507 22.9611C26.8507 23.43 25.9655 23.6808 25.2225 23.8087C24.0354 24.0129 22.3911 24.0548 20.2878 24.0548H15.8151C14.7355 24.0548 13.7486 23.3973 13.301 22.3794C10.9328 16.995 6.55585 12.7054 1.09628 10.4391C0.89782 9.09327 1.19689 7.44431 2.07553 5.96924Z" fill="#363636"/>
<path d="M15.8039 22.9611H21.9294C22.2314 22.9611 22.4762 22.7161 22.4762 22.4142C22.4762 22.1122 22.2314 21.8671 21.9294 21.8671H15.8039C15.5019 21.8671 15.2568 22.1122 15.2568 22.4142C15.2568 22.7161 15.5019 22.9611 15.8039 22.9611Z" fill="#363636"/>
</g>
<defs>
<clipPath id="clip0">
<rect width="28" height="27.9454" fill="white"/>
</clipPath>
</defs>
</svg>
