<svg width="28" height="28" viewBox="0 0 28 28" fill="none" xmlns="http://www.w3.org/2000/svg">
<g clip-path="url(#clip0)">
<path d="M24.5051 9.18172H21.3388C21.2596 8.36462 21.1117 7.38622 20.8398 6.3728C19.9161 2.92983 17.9924 0.775658 15.2766 0.143333C14.4565 -0.0478592 13.5892 -0.0478592 12.7689 0.143333C10.0531 0.775658 8.12943 2.92983 7.20572 6.3728C6.93378 7.38622 6.78616 8.36462 6.7067 9.18172H3.54059C3.12616 9.18172 2.78906 9.51882 2.78906 9.93325V20.3643C2.78906 20.5909 2.97278 20.7746 3.19943 20.7746C3.42609 20.7746 3.6098 20.5909 3.6098 20.3643V10.0025H6.64474C6.62253 10.4141 6.61804 10.7506 6.61911 10.9834C6.44394 11.0702 6.30936 11.2302 6.25958 11.4299L5.40146 14.862C5.35895 15.0322 5.38266 15.2102 5.46875 15.3633L6.27325 16.7933C6.39417 17.0084 6.62253 17.1422 6.86926 17.1422H8.63016C8.87668 17.1422 9.10504 17.0087 9.22617 16.7935L10.0305 15.3635C10.1165 15.2106 10.1405 15.0326 10.098 14.8622L9.23984 11.4299C9.19327 11.2432 9.07257 11.0911 8.91406 11.0012C8.92944 10.6564 8.95038 10.3238 8.97623 10.0025H10.193C10.4197 10.0025 10.6034 9.81875 10.6034 9.59209C10.6034 9.36544 10.4197 9.18172 10.193 9.18172H9.0574C9.17532 8.17535 9.35242 7.2918 9.59253 6.51336C10.1366 4.74883 11.0165 3.49316 12.2081 2.78158C13.0131 2.30093 13.9039 2.1578 14.784 2.368C15.6184 2.56689 16.4156 3.08321 17.029 3.8215C18.2618 5.30532 18.7721 7.28817 18.9926 9.18172H12.7279C12.5012 9.18172 12.3177 9.36544 12.3177 9.59209C12.3177 9.81875 12.5012 10.0025 12.7279 10.0025H19.0718C19.0983 10.3423 19.1176 10.6767 19.1317 11.0012C18.9731 11.0911 18.8524 11.2432 18.8057 11.4299L17.9475 14.8624C17.905 15.0326 17.929 15.2108 18.015 15.3633L18.8195 16.7938C18.9405 17.0087 19.1688 17.1422 19.4156 17.1422H21.1762C21.423 17.1422 21.6513 17.0087 21.7722 16.7935L22.5768 15.3633C22.6628 15.2104 22.6868 15.0322 22.644 14.8622L21.7861 11.4299C21.7361 11.2302 21.6016 11.0704 21.4264 10.9834C21.4275 10.7506 21.423 10.4141 21.4008 10.0025H24.4359V27.1795H3.6098V22.8809C3.6098 22.6543 3.42609 22.4706 3.19943 22.4706C2.97278 22.4706 2.78906 22.6543 2.78906 22.8809V27.2485C2.78906 27.6629 3.12616 28 3.54059 28H24.5051C24.9193 28 25.2564 27.6629 25.2564 27.2485V9.93325C25.2564 9.51882 24.9193 9.18172 24.5051 9.18172ZM9.28854 15.0083L8.55005 16.3214H6.94937L6.21088 15.0085L7.02969 11.7324H8.46973L9.28854 15.0083ZM11.7873 2.07705C10.4163 2.89565 9.41394 4.30706 8.80832 6.27154C8.41034 7.56203 8.1824 9.04479 8.09631 10.9119H7.44092C7.44327 10.1539 7.50928 8.3988 8.00339 6.56719C8.3815 5.16561 8.93243 3.99453 9.64124 3.08642C10.5096 1.97366 11.6245 1.25246 12.9552 0.942497C13.6537 0.77993 14.392 0.77993 15.0905 0.942497C16.4212 1.25246 17.5361 1.97366 18.4045 3.08642C19.1131 3.99453 19.6642 5.16561 20.0423 6.56719C20.5364 8.3988 20.6024 10.1539 20.6048 10.9119H19.9494C19.8383 8.43768 19.4399 5.43884 17.6602 3.29705C16.0901 1.40734 13.73 0.916862 11.7873 2.07705ZM21.8348 15.0085L21.0961 16.3214H19.4957L18.757 15.0085L19.576 11.7326H21.0158L21.8348 15.0085Z" fill="#363636"/>
<path d="M14.7614 12.1909C14.988 12.1909 15.1717 12.0071 15.1717 11.7805C15.1717 11.5538 14.988 11.3701 14.7614 11.3701H13.2841C13.0575 11.3701 12.8738 11.5538 12.8738 11.7805C12.8738 12.0071 13.0575 12.1909 13.2841 12.1909H14.7614Z" fill="#363636"/>
</g>
<defs>
<clipPath id="clip0">
<rect width="28" height="28" fill="white"/>
</clipPath>
</defs>
</svg>
